<?xml version="1.0" encoding="utf-8"?>
<!-- Generator: Adobe Illustrator 23.0.1, SVG Export Plug-In . SVG Version: 6.00 Build 0)  -->
<svg version="1.1" id="Layer_1" xmlns="http://www.w3.org/2000/svg" xmlns:xlink="http://www.w3.org/1999/xlink" x="0px" y="0px"
	 viewBox="0 0 1080 1080" style="enable-background:new 0 0 1080 1080;" xml:space="preserve">
<style type="text/css">
	.st0{fill-rule:evenodd;clip-rule:evenodd;fill:#9daaf2;}
</style>
<g>
	<path class="st0" d="M-0.3,919.8c0.6-0.5,1.3-1,1.7-1.7c6.5-11.3,13-22.6,19.5-33.9c0.2-0.3,0.2-0.6,0.4-1
		c-2.1-3.7-4.3-7.4-6.5-11.2c-4.3-7.5-8.7-15.1-13.1-22.6c-0.5-0.9-1.4-1.7-2.1-2.5c0-0.8,0-1.7,0-2.5c0.7-0.2,1.5-0.5,2.5-0.8
		c0.5,0.8,1.1,1.7,1.6,2.7c6.2,10.8,12.5,21.5,18.6,32.3c1.3,2.3,2.7,3.3,5.5,3.3c12.3-0.2,24.7-0.1,37-0.1c1.1,0,2.3,0,3.6,0
		c0,1,0,1.9,0,3.1c-1.1,0-2.2,0-3.3,0c-12.5,0-25.1,0.1-37.6-0.1c-2.4,0-3.7,0.6-4.9,2.8c-6.1,10.9-12.5,21.7-18.7,32.6
		c-0.6,1-1.2,1.9-1.7,2.9c-0.9-0.3-1.7-0.6-2.5-0.9C-0.3,921.5-0.3,920.6-0.3,919.8z M24.9,883.3c-0.8-0.4-1.3-0.8-1.8-0.8
		c-0.3,0-0.6,0.6-1,1c0.4,0.4,0.8,1,1.3,1C23.8,884.5,24.3,883.8,24.9,883.3z"/>
	<path class="st0" d="M-0.3,645.2c0.6-0.5,1.3-1,1.7-1.7C8,632.3,14.5,621,21,609.7c0.2-0.3,0.2-0.6,0.4-1
		c-2.2-3.8-4.4-7.6-6.6-11.5c-4.3-7.4-8.6-14.9-12.9-22.3c-0.5-0.9-1.4-1.7-2.1-2.5c0-0.8,0-1.7,0-2.5c0.7-0.2,1.5-0.5,2.5-0.8
		c0.5,0.8,1.2,1.9,1.8,2.9c6.1,10.6,12.2,21.2,18.3,31.7c2.4,4.1,1.1,3.5,5.9,3.5c12.2,0,24.4,0,36.7,0c1.1,0,2.3,0,3.6,0
		c0,1,0,1.9,0,3.1c-1.1,0-2.2,0-3.3,0c-12.5,0-25.1,0.1-37.6-0.1c-2.4,0-3.7,0.6-4.9,2.8C16.6,624,10.2,634.8,4,645.7
		c-0.6,1-1.2,2-1.7,2.9c-0.9-0.3-1.7-0.6-2.5-0.9C-0.3,646.9-0.3,646-0.3,645.2z M23.3,610.3c0.6-0.6,1.1-1,1.2-1.5
		c0.1-0.3-0.6-1-0.9-1c-0.5,0.1-1.1,0.5-1.3,0.9C22.2,609,22.8,609.6,23.3,610.3z"/>
	<path class="st0" d="M-0.3,370.6c0.6-0.6,1.3-1,1.7-1.7c6.5-11.3,13-22.6,19.5-33.9c0.2-0.3,0.2-0.6,0.4-1c-2.3-4-4.6-8-6.9-12
		c-4.2-7.3-8.4-14.5-12.6-21.8c-0.5-0.9-1.4-1.7-2.1-2.5c0-0.8,0-1.7,0-2.5c0.7-0.2,1.5-0.5,2.5-0.8c0.5,0.8,1.1,1.7,1.6,2.7
		c6.2,10.7,12.3,21.4,18.5,32c2.4,4.1,1.1,3.5,5.9,3.5c12.2,0,24.4,0,36.7,0c1.1,0,2.3,0,3.6,0c0,1,0,1.9,0,3.1c-1.1,0-2.2,0-3.3,0
		c-12.5,0-25.1,0.1-37.6-0.1c-2.4,0-3.7,0.6-4.9,2.8c-6.2,11-12.6,21.9-18.9,32.9c-0.5,0.9-1.1,1.8-1.6,2.6
		c-0.9-0.3-1.7-0.6-2.5-0.9C-0.3,372.3-0.3,371.4-0.3,370.6z M25,334.1c-0.8-0.4-1.3-0.9-1.7-0.9c-0.3,0-0.7,0.6-1,0.9
		c0.4,0.4,0.8,1,1.2,1C23.8,335.3,24.2,334.7,25,334.1z"/>
	<path class="st0" d="M-0.3,508.2c0.6-0.7,1.3-1.3,1.8-2.1C8,495,14.5,483.7,20.9,472.5c0.2-0.3,0.2-0.6,0.4-1
		c-0.3-0.7-0.7-1.4-1.1-2.1c-6.1-10.6-12.2-21.2-18.3-31.7c-0.5-0.9-0.7-2.3-2.2-2.3c0-0.8,0-1.7,0-2.5c0.7-0.3,1.5-0.7,2.4-1.1
		c0.4,0.7,1,1.4,1.4,2.2c6.4,11.1,12.9,22.2,19.2,33.4c1.1,2,2.4,2.7,4.7,2.6c12.4-0.1,24.9-0.1,37.3-0.1c1.2,0,2.4,0,3.8,0
		c0,1.1,0,1.9,0,2.9c-0.4,0.1-0.9,0.2-1.4,0.2c-9.3,0-18.7,0-28,0c-4.1,0-8.3,0.1-12.4,0c-1.8-0.1-2.8,0.6-3.7,2.2
		c-6.4,11.2-12.8,22.3-19.2,33.4c-0.5,0.9-1.1,1.8-1.6,2.7c-0.9-0.5-1.6-0.9-2.4-1.3C-0.3,509.5-0.3,508.9-0.3,508.2z M21.8,471.5
		c0.6,0.5,1,1.1,1.5,1.1c0.4,0,0.8-0.6,1.2-1c-0.4-0.4-0.7-1.1-1.1-1.1C23,470.4,22.6,471,21.8,471.5z"/>
	<path class="st0" d="M-0.3,782.8c0.6-0.7,1.3-1.3,1.8-2.1c6.5-11.2,12.9-22.4,19.4-33.6c0.2-0.3,0.2-0.6,0.4-1
		c-0.3-0.6-0.7-1.4-1.1-2.1c-6.1-10.6-12.2-21.2-18.3-31.7c-0.5-0.9-0.7-2.3-2.2-2.3c0-0.8,0-1.7,0-2.5c0.7-0.3,1.5-0.7,2.4-1.1
		c0.4,0.7,1,1.4,1.4,2.2c6.4,11.1,12.9,22.2,19.2,33.4c1.1,2,2.4,2.7,4.7,2.6c12.4-0.1,24.9-0.1,37.3-0.1c1.2,0,2.4,0,3.8,0
		c0,1.1,0,1.9,0,2.9c-0.4,0.1-0.9,0.2-1.4,0.2c-9.5,0-19.1,0-28.6,0c-3.9,0-7.9,0.1-11.8,0c-1.8-0.1-2.8,0.6-3.7,2.2
		c-6.5,11.3-13,22.6-19.6,33.9c-0.4,0.7-0.9,1.4-1.3,2.1c-0.9-0.5-1.6-0.9-2.4-1.3C-0.3,784.1-0.3,783.5-0.3,782.8z M24.9,746.1
		c-0.7-0.5-1.2-1-1.6-1c-0.4,0.1-0.7,0.7-1.1,1.1c0.4,0.3,0.8,1,1.2,1C23.9,747.2,24.3,746.6,24.9,746.1z"/>
	<path class="st0" d="M-0.3,1057.4c0.6-0.7,1.3-1.3,1.8-2.1c6.5-11.2,12.9-22.4,19.4-33.6c0.2-0.3,0.2-0.6,0.4-1
		c-0.3-0.7-0.7-1.4-1.1-2.1c-6.1-10.6-12.2-21.2-18.3-31.7c-0.5-0.9-0.7-2.3-2.2-2.3c0-0.8,0-1.7,0-2.5c0.7-0.3,1.5-0.7,2.4-1.1
		c0.4,0.7,1,1.4,1.4,2.2c6.4,11.1,12.9,22.2,19.2,33.4c1.1,2,2.4,2.7,4.7,2.6c12.4-0.1,24.9-0.1,37.3-0.1c1.2,0,2.4,0,3.8,0
		c0,1.1,0,1.9,0,2.9c-0.4,0.1-0.9,0.2-1.4,0.2c-10.7,0-21.4,0-32,0c-2.8,0-5.6,0.1-8.4,0c-1.8-0.1-2.8,0.6-3.7,2.2
		c-6.5,11.3-13,22.6-19.6,33.9c-0.4,0.7-0.9,1.4-1.3,2.1c-0.9-0.5-1.6-0.9-2.4-1.3C-0.3,1058.7-0.3,1058.1-0.3,1057.4z M24.9,1020.7
		c-0.7-0.5-1.2-1-1.6-1c-0.4,0.1-0.7,0.7-1.1,1.1c0.4,0.4,0.8,1,1.2,1C23.9,1021.8,24.3,1021.2,24.9,1020.7z"/>
	<path class="st0" d="M-0.3,233.6c0.6-0.7,1.3-1.3,1.8-2.1c6.5-11.2,12.9-22.4,19.4-33.6c0.2-0.3,0.2-0.6,0.4-1
		c-0.3-0.6-0.6-1.2-0.9-1.8c-6.1-10.7-12.3-21.3-18.5-32c-0.5-0.9-0.7-2.3-2.2-2.3c0-0.8,0-1.7,0-2.5c0.7-0.3,1.5-0.7,2.4-1.1
		c0.4,0.7,1,1.4,1.4,2.2c6.4,11.1,12.9,22.2,19.2,33.4c1.1,2,2.4,2.7,4.7,2.6c12.4-0.1,24.9-0.1,37.3-0.1c1.2,0,2.4,0,3.8,0
		c0,1.1,0,1.9,0,2.9c-0.4,0.1-0.9,0.2-1.4,0.2c-9.5,0-19.1,0-28.6,0c-3.9,0-7.9,0.1-11.8,0c-1.8-0.1-2.8,0.6-3.7,2.2
		c-6.4,11.2-12.8,22.3-19.2,33.4c-0.5,0.9-1.1,1.8-1.6,2.7c-0.9-0.5-1.6-0.9-2.4-1.3C-0.3,234.9-0.3,234.3-0.3,233.6z M23.5,198.5
		c0.5-0.7,1-1.2,1-1.6c-0.1-0.4-0.8-1-1.1-1c-0.4,0-1,0.7-1,1.1C22.3,197.4,22.9,197.8,23.5,198.5z"/>
	<path class="st0" d="M-0.2,96c0.6-0.5,1.3-1,1.7-1.7C8,83.2,14.4,72,20.9,60.7c0.2-0.3,0.2-0.6,0.4-1.1c-1.2-2.1-2.5-4.4-3.8-6.6
		c-5.2-9-10.3-18-15.6-26.9c-0.5-0.9-0.7-2.3-2.2-2.3c0-0.8,0-1.7,0-2.5c0.7-0.3,1.5-0.7,2.4-1.1c0.4,0.7,1,1.4,1.4,2.2
		C10,33.6,16.4,44.7,22.8,55.8c1.1,2,2.4,2.7,4.6,2.7c12.4-0.1,24.9-0.1,37.3-0.1c1.2,0,2.4,0,3.7,0c0.1,1,0.1,1.7,0.2,2.4
		c-0.3,0.1-0.6,0.3-0.9,0.3c-8,0-16,0-23.9,0c-5,0-9.9,0-14.9,0c-5.5,0.1-4.1-0.7-6.7,3.8C16,75.7,9.8,86.4,3.7,97
		c-0.5,0.8-1,1.6-1.4,2.4c-0.9-0.3-1.7-0.6-2.5-0.9C-0.2,97.7-0.2,96.9-0.2,96z M24.8,59.6c-0.7-0.3-1.1-0.7-1.5-0.7
		c-0.4,0.1-0.7,0.6-1,0.9c0.4,0.3,0.9,0.8,1.4,0.9C23.9,60.7,24.3,60.1,24.8,59.6z"/>
	<path class="st0" d="M305.1,0c6.7,11.7,13.4,23.3,20.2,35c-0.9,0.6-1.6,1-2.7,1.7c-7.1-12.3-14.1-24.5-21.2-36.7
		C302.7,0,303.9,0,305.1,0z"/>
	<path class="st0" d="M781.2,0c6.7,11.7,13.4,23.3,20.2,35c-0.9,0.6-1.6,1-2.7,1.7c-7.1-12.3-14.1-24.5-21.2-36.7
		C778.7,0,780,0,781.2,0z"/>
	<path class="st0" d="M374.8,0c-7,12.2-14.1,24.4-21.2,36.7c-1-0.6-1.8-1.1-2.8-1.6C357.6,23.3,364.3,11.7,371,0
		C372.3,0,373.5,0,374.8,0z"/>
	<path class="st0" d="M543.2,0c6.7,11.7,13.4,23.3,20.2,35c-0.9,0.6-1.6,1-2.7,1.7c-7.1-12.3-14.1-24.5-21.2-36.7
		C540.7,0,541.9,0,543.2,0z"/>
	<path class="st0" d="M612.8,0c-7,12.2-14.1,24.4-21.2,36.7c-1-0.6-1.8-1.1-2.8-1.6c6.8-11.7,13.5-23.4,20.2-35.1
		C610.3,0,611.6,0,612.8,0z"/>
	<path class="st0" d="M136.7,0c-7,12.2-14.1,24.4-21.2,36.7c-1-0.6-1.8-1.1-2.8-1.6C119.6,23.3,126.3,11.7,133,0
		C134.2,0,135.5,0,136.7,0z"/>
	<path class="st0" d="M67.1,0c6.7,11.7,13.4,23.3,20.2,35c-0.9,0.6-1.6,1-2.7,1.7C77.5,24.5,70.4,12.3,63.4,0C64.6,0,65.9,0,67.1,0z
		"/>
	<path class="st0" d="M1019.3,0c6.7,11.7,13.4,23.3,20.2,35c-0.9,0.6-1.6,1-2.7,1.7c-7.1-12.3-14.1-24.5-21.2-36.7
		C1016.8,0,1018,0,1019.3,0z"/>
	<path class="st0" d="M850.9,0c-7,12.2-14.1,24.4-21.2,36.7c-1-0.6-1.8-1.1-2.8-1.6c6.8-11.7,13.5-23.4,20.2-35.1
		C848.4,0,849.6,0,850.9,0z"/>
	<path class="st0" d="M64.1,1080c2.4-4.2,4.7-8.5,7.1-12.7c4.4-7.7,8.9-15.4,13.4-23.2c0.9,0.5,1.7,1,2.7,1.5c-0.5,1-1,2-1.6,2.9
		c-5.5,9.5-11,19-16.4,28.5c-0.6,1-1,2-1.5,3C66.6,1080,65.3,1080,64.1,1080z"/>
	<path class="st0" d="M132.3,1080c-0.9-1.7-1.8-3.5-2.8-5.2c-5.6-9.7-11.2-19.3-16.8-29.1c0.9-0.6,1.7-1.1,2.7-1.7
		c0.5,0.9,1.1,1.7,1.6,2.6c5.9,10.2,11.8,20.4,17.7,30.6c0.5,0.9,0.9,1.8,1.4,2.8C134.8,1080,133.5,1080,132.3,1080z"/>
	<path class="st0" d="M302.1,1080c2.3-4.1,4.6-8.3,7-12.4c4.5-7.8,9-15.6,13.6-23.5c0.9,0.5,1.7,1,2.8,1.5c-0.5,1-1,2-1.6,2.9
		c-5.5,9.6-11.1,19.1-16.6,28.7c-0.5,0.9-0.9,1.8-1.4,2.8C304.6,1080,303.4,1080,302.1,1080z"/>
	<path class="st0" d="M370.3,1080c-0.6-1.2-1.2-2.4-1.8-3.6c-5.3-9.2-10.6-18.4-16-27.7c-0.6-1-1.1-2-1.7-3.1
		c0.9-0.5,1.7-1.1,2.6-1.7c0.5,0.9,1.1,1.7,1.6,2.6c5.9,10.2,11.8,20.4,17.7,30.6c0.5,0.9,0.9,1.8,1.4,2.8
		C372.8,1080,371.6,1080,370.3,1080z"/>
	<path class="st0" d="M540.1,1080c2.4-4.2,4.7-8.5,7.1-12.7c4.4-7.7,8.9-15.4,13.4-23.2c0.9,0.5,1.7,1,2.7,1.5c-0.5,1-1,2-1.6,2.9
		c-5.5,9.5-11,19-16.4,28.5c-0.6,1-1,2-1.5,3C542.6,1080,541.4,1080,540.1,1080z"/>
	<path class="st0" d="M608.4,1080c-0.9-1.7-1.8-3.5-2.8-5.2c-5.6-9.7-11.2-19.3-16.8-29.1c0.9-0.6,1.7-1.1,2.7-1.7
		c0.5,0.9,1.1,1.7,1.6,2.6c5.9,10.2,11.8,20.4,17.7,30.6c0.5,0.9,0.9,1.8,1.4,2.8C610.9,1080,609.6,1080,608.4,1080z"/>
	<path class="st0" d="M778.2,1080c2.3-4.1,4.6-8.3,7-12.4c4.5-7.8,9-15.6,13.6-23.5c0.9,0.5,1.7,1,2.8,1.5c-0.5,1-1,2-1.6,2.9
		c-5.5,9.6-11.1,19.1-16.6,28.7c-0.5,0.9-0.9,1.8-1.4,2.8C780.7,1080,779.4,1080,778.2,1080z"/>
	<path class="st0" d="M846.4,1080c-0.6-1.2-1.2-2.4-1.8-3.6c-5.3-9.2-10.6-18.4-16-27.7c-0.6-1-1.1-2-1.7-3.1
		c0.9-0.5,1.7-1.1,2.6-1.7c0.5,0.9,1.1,1.7,1.6,2.6c5.9,10.2,11.8,20.4,17.7,30.6c0.5,0.9,0.9,1.8,1.4,2.8
		C848.9,1080,847.7,1080,846.4,1080z"/>
	<path class="st0" d="M1016.2,1080c2.4-4.2,4.7-8.5,7.1-12.7c4.4-7.7,8.9-15.4,13.4-23.2c0.9,0.5,1.7,1,2.8,1.5c-0.5,1-1,2-1.6,2.9
		c-5.5,9.5-11,19-16.4,28.5c-0.6,1-1,2-1.5,3C1018.7,1080,1017.5,1080,1016.2,1080z"/>
	<path class="st0" d="M1078.4,383.3c-4.8-8.4-9.7-16.8-14.6-25.3c0.9-0.6,1.7-1.1,2.7-1.7c2.3,4,4.6,8,7,12c1.6,2.7,3.3,5.4,4.9,8.1
		C1078.4,378.8,1078.4,381,1078.4,383.3z"/>
	<path class="st0" d="M1078.4,932.5c-4.8-8.4-9.7-16.8-14.6-25.3c0.9-0.6,1.7-1.1,2.7-1.7c2.3,4,4.6,8,7,12c1.6,2.7,3.3,5.4,4.9,8.1
		C1078.4,928,1078.4,930.3,1078.4,932.5z"/>
	<path class="st0" d="M1078.4,108.7c-4.8-8.4-9.7-16.8-14.6-25.3c0.9-0.6,1.7-1.1,2.7-1.7c2.4,4.2,4.8,8.4,7.3,12.6
		c1.5,2.6,3.1,5.1,4.6,7.6C1078.4,104.2,1078.4,106.4,1078.4,108.7z"/>
	<path class="st0" d="M1078.4,657.9c-4.8-8.4-9.7-16.8-14.6-25.3c0.9-0.6,1.7-1.1,2.7-1.7c2.4,4.2,4.8,8.4,7.3,12.6
		c1.5,2.6,3.1,5.1,4.6,7.6C1078.4,653.4,1078.4,655.6,1078.4,657.9z"/>
	<path class="st0" d="M1078.4,566.5c-3.3,5.7-6.7,11.4-10,17.1c-0.6,1.1-1.3,2.1-1.9,3.2c-0.9-0.5-1.7-1-2.7-1.6
		c4.9-8.5,9.8-17,14.6-25.5C1078.4,562,1078.4,564.2,1078.4,566.5z"/>
	<path class="st0" d="M1078.4,291.9c-3.3,5.7-6.7,11.4-10,17.1c-0.6,1.1-1.3,2.1-1.9,3.2c-0.9-0.5-1.7-1-2.7-1.6
		c4.9-8.5,9.8-17,14.6-25.5C1078.4,287.4,1078.4,289.6,1078.4,291.9z"/>
	<path class="st0" d="M1078.4,841.1c-3.3,5.7-6.7,11.4-10,17.1c-0.6,1.1-1.3,2.1-1.9,3.2c-0.9-0.5-1.7-1-2.7-1.6
		c4.9-8.5,9.8-17,14.6-25.5C1078.4,836.6,1078.4,838.8,1078.4,841.1z"/>
	<path class="st0" d="M1078.4,794.9c-3.6-6.2-7.3-12.4-10.9-18.6c-1.2-2.1-2.4-4.3-3.7-6.4c0.9-0.6,1.7-1,2.7-1.6
		c4,6.8,7.9,13.6,11.9,20.4C1078.4,790.7,1078.4,792.8,1078.4,794.9z"/>
	<path class="st0" d="M1078.4,245.7c-3.6-6.2-7.3-12.4-10.9-18.6c-1.2-2.1-2.4-4.3-3.7-6.4c0.9-0.6,1.7-1,2.7-1.6
		c4,6.8,7.9,13.6,11.9,20.4C1078.4,241.5,1078.4,243.6,1078.4,245.7z"/>
	<path class="st0" d="M1078.4,520.3c-3.6-6.2-7.3-12.4-10.9-18.6c-1.2-2.1-2.4-4.3-3.7-6.4c0.9-0.6,1.7-1,2.7-1.7
		c4,6.8,7.9,13.6,11.9,20.4C1078.4,516.1,1078.4,518.2,1078.4,520.3z"/>
	<path class="st0" d="M1078.4,1069.5c-3.6-6.2-7.3-12.4-10.9-18.6c-1.2-2.1-2.4-4.3-3.7-6.4c0.9-0.6,1.7-1,2.7-1.6
		c4,6.8,7.9,13.6,11.9,20.4C1078.4,1065.3,1078.4,1067.4,1078.4,1069.5z"/>
	<path class="st0" d="M1078.4,703.5c-3.9,6.8-7.8,13.6-11.9,20.5c-0.9-0.6-1.8-1.1-2.8-1.7c4.9-8.4,9.8-16.7,14.7-25.1
		C1078.4,699.4,1078.4,701.5,1078.4,703.5z"/>
	<path class="st0" d="M1078.4,154.3c-3.9,6.8-7.8,13.6-11.9,20.5c-0.9-0.6-1.8-1.1-2.8-1.7c4.9-8.4,9.8-16.7,14.7-25.1
		C1078.4,150.2,1078.4,152.3,1078.4,154.3z"/>
	<path class="st0" d="M1078.4,17.4c-3.9,6.8-7.8,13.6-11.9,20.5c-0.9-0.6-1.8-1.1-2.8-1.7c4.9-8.4,9.8-16.7,14.7-25.1
		C1078.4,13.3,1078.4,15.4,1078.4,17.4z"/>
	<path class="st0" d="M1078.4,428.9c-3.9,6.8-7.8,13.6-11.9,20.5c-0.9-0.6-1.8-1.1-2.8-1.7c4.9-8.4,9.8-16.7,14.7-25.1
		C1078.4,424.8,1078.4,426.9,1078.4,428.9z"/>
	<path class="st0" d="M1078.4,978.1c-3.9,6.8-7.8,13.6-11.9,20.5c-0.9-0.6-1.8-1.1-2.8-1.7c4.9-8.4,9.8-16.7,14.7-25.1
		C1078.4,974,1078.4,976.1,1078.4,978.1z"/>
	<path class="st0" d="M1079.7,335.8c-1.3,0-2.7,0-4.1,0c0-1.1,0-2,0-3.1c1.4,0,2.7,0,4.1,0C1079.7,333.7,1079.7,334.7,1079.7,335.8z
		"/>
	<path class="st0" d="M1079.7,885c-1.3,0-2.7,0-4.1,0c0-1.1,0-2,0-3.1c1.4,0,2.7,0,4.1,0C1079.7,882.9,1079.7,883.9,1079.7,885z"/>
	<path class="st0" d="M1079.7,610.4c-1.3,0-2.7,0-4.1,0c0-1.1,0-2,0-3.1c1.4,0,2.7,0,4.1,0C1079.7,608.3,1079.7,609.3,1079.7,610.4z
		"/>
	<path class="st0" d="M1079.7,473.4c-1.3-0.1-2.6-0.3-4-0.4c0-0.9,0-1.8,0-3c1.4,0.1,2.7,0.2,4,0.3
		C1079.7,471.3,1079.7,472.4,1079.7,473.4z"/>
	<path class="st0" d="M1079.7,198.8c-1.3-0.1-2.6-0.2-4-0.4c0-0.9,0-1.8,0-3c1.4,0.1,2.7,0.2,4,0.3
		C1079.7,196.7,1079.7,197.8,1079.7,198.8z"/>
	<path class="st0" d="M1079.7,1022.6c-1.3-0.1-2.6-0.3-4-0.4c0-0.9,0-1.8,0-3c1.4,0.1,2.7,0.2,4,0.3
		C1079.7,1020.5,1079.7,1021.6,1079.7,1022.6z"/>
	<path class="st0" d="M1079.7,748c-1.3-0.1-2.6-0.2-4-0.4c0-0.9,0-1.8,0-3c1.4,0.1,2.7,0.2,4,0.3
		C1079.7,745.9,1079.7,747,1079.7,748z"/>
	<path class="st0" d="M1079.7,61.2c-1.3,0-2.6,0-4,0c0-0.9,0-1.7,0-2.8c1.4,0.1,2.7,0.2,4,0.3C1079.7,59.5,1079.7,60.4,1079.7,61.2z
		"/>
	<path class="st0" d="M319.7,166.6c-1.1,0.6-1.8,1.1-2.7,1.6c-0.9-1.5-1.7-2.9-2.5-4.4c-5.9-10.2-11.9-20.4-17.7-30.7
		c-1.3-2.4-2.7-3.3-5.6-3.3c-12.3,0.2-24.7,0.1-37,0.1c-1.1,0-2.3,0-3.5,0c0-1.1,0-2,0-3.1c0.4-0.1,0.7-0.2,1.1-0.2
		c12.9,0,25.7,0,38.6,0c5.5,0,4,0.8,6.7-3.8c6.1-10.5,12.1-21,18.2-31.5c0.6-1,1.2-1.9,1.8-2.9c0.9,0.5,1.7,0.9,2.8,1.5
		c-7.3,12.7-14.7,25.4-22.1,38.4C305,141,312.3,153.7,319.7,166.6z M295.7,126.8c-0.5,0.7-1.1,1.2-1,1.6c0.1,0.4,0.8,0.8,1.2,1.1
		c0.4-0.4,1-0.8,1-1.3C296.9,127.8,296.2,127.4,295.7,126.8z"/>
	<path class="st0" d="M795.8,166.6c-0.9,0.6-1.6,1-2.6,1.6c-0.5-0.7-1-1.5-1.5-2.2c-6.4-11.1-12.9-22.2-19.2-33.4
		c-1.1-2-2.4-2.7-4.6-2.7c-12.4,0.1-24.9,0.1-37.3,0.1c-1.2,0-2.5,0-3.8,0c0-1.2,0-2,0-3.3c1.1,0,2.2,0,3.4,0
		c12.6,0,25.3-0.1,37.9,0.1c2.2,0,3.3-0.7,4.4-2.5c6.1-10.8,12.4-21.6,18.6-32.3c0.7-1.2,1.3-2.3,2-3.5c0.9,0.5,1.7,1,2.8,1.6
		c-7.3,12.7-14.7,25.4-22.1,38.4C781.1,141,788.4,153.7,795.8,166.6z M773.4,128.2c-0.7-0.5-1.2-1-1.6-1c-0.4,0.1-1.1,0.8-1,1.1
		c0,0.4,0.7,1,1.2,1C772.4,129.4,772.8,128.8,773.4,128.2z"/>
	<path class="st0" d="M607.7,885c0-1.1,0-2,0-3.1c14.7,0,29.3,0,44.2,0c7.4-12.7,14.7-25.5,22.2-38.3c0.9,0.5,1.7,1,2.8,1.6
		c-7.4,12.8-14.7,25.5-22.1,38.3c7.4,12.7,14.6,25.4,22,38.2c-0.9,0.6-1.7,1.1-2.7,1.7c-0.6-1-1.2-1.9-1.8-2.9
		c-6.3-11-12.7-21.9-18.9-32.9c-1.1-2-2.4-2.6-4.7-2.6c-12.5,0.1-25.1,0.1-37.6,0.1C610,885,608.9,885,607.7,885z M653,882
		c-0.6,0.6-1.1,1-1.2,1.4c-0.1,0.3,0.6,1,0.8,1c0.5-0.1,1.2-0.4,1.3-0.9C654,883.3,653.4,882.7,653,882z"/>
	<path class="st0" d="M425.4,679.1c-1.2,0-2.5,0-3.7,0c-12.4,0-24.9,0.1-37.3-0.1c-2.3,0-3.5,0.7-4.6,2.7
		c-6.3,11.1-12.7,22.1-19.1,33.1c-0.5,0.8-1,1.6-1.5,2.5c-0.9-0.5-1.7-1-2.7-1.6c7.3-12.7,14.6-25.4,22.1-38.3
		c-7.3-12.7-14.7-25.4-22.1-38.3c0.9-0.6,1.7-1,2.7-1.7c7.4,12.7,14.7,25.5,22.1,38.3c14.7,0,29.3,0,44.1,0
		C425.4,676.9,425.4,677.9,425.4,679.1z M380.5,676c-0.6,0.6-1.2,1.1-1.2,1.5c0,0.4,0.7,0.8,1,1.3c0.4-0.4,1.1-0.7,1.2-1.1
		C381.6,677.2,381,676.7,380.5,676z"/>
	<path class="st0" d="M835.2,717.4c-1-0.6-1.7-1.1-2.7-1.7c7.3-12.7,14.7-25.5,22.1-38.2c-7.4-12.8-14.7-25.4-22.1-38.3
		c0.9-0.6,1.7-1.1,2.7-1.7c7.4,12.7,14.7,25.5,22.2,38.4c14.7,0,29.4,0,44.2,0c0,1.1,0,2,0,3.3c-1.3,0-2.5,0-3.7,0
		c-12.1,0-24.3,0.1-36.4-0.1c-3-0.1-4.6,0.9-6.1,3.5c-6.1,10.9-12.4,21.6-18.6,32.3C836.3,715.6,835.8,716.4,835.2,717.4z
		 M858.1,677.6c-0.7-0.5-1.1-1.2-1.5-1.1c-0.4,0-0.8,0.6-1.3,1c0.4,0.4,0.7,1.1,1.1,1.2C856.8,678.7,857.3,678.1,858.1,677.6z"/>
	<path class="st0" d="M131.6,885c0-1.1,0-1.9,0-3.1c14.8,0,29.4,0,44.2,0c7.5-12.9,14.8-25.6,22.2-38.4c0.9,0.6,1.7,1,2.8,1.6
		c-7.3,12.7-14.7,25.4-22.1,38.3c7.4,12.8,14.7,25.5,22,38.2c-0.9,0.6-1.7,1.1-2.6,1.7c-0.6-0.9-1.2-1.9-1.7-2.8
		c-6.3-10.9-12.7-21.9-18.9-32.9c-1.1-2-2.3-2.7-4.6-2.7c-12.5,0.1-25.1,0.1-37.6,0.1C134,885,132.9,885,131.6,885z M176.7,884.9
		c0.5-0.6,0.9-1.1,1.2-1.5c-0.4-0.3-0.8-0.9-1.3-1c-0.3-0.1-1,0.6-1,0.9C175.7,883.8,176.2,884.2,176.7,884.9z"/>
	<path class="st0" d="M121.1,717.4c-0.9-0.5-1.6-1-2.7-1.6c7.3-12.7,14.7-25.4,22.1-38.3c-7.4-12.8-14.7-25.5-22.1-38.3
		c0.9-0.6,1.7-1,2.5-1.6c0.2,0.2,0.5,0.5,0.7,0.8c6.3,10.9,12.5,21.7,18.8,32.6c0.6,1,1.2,1.9,1.7,3c0.6,1.4,1.6,2.1,3.1,1.9
		c0.7-0.1,1.5,0,2.2,0c12.1,0,24.3,0,36.4,0c1.1,0,2.3,0,3.6,0c0,1,0,1.9,0,2.9c-0.3,0.1-0.7,0.3-1.1,0.3c-5.3,0-10.6,0-15.9,0
		c-8,0-16,0.1-23.9-0.1c-2.4,0-3.7,0.6-4.9,2.8c-6.3,11.1-12.7,22.1-19.1,33.2C122.1,715.8,121.6,716.6,121.1,717.4z M143.9,677.4
		c-0.7-0.5-1.2-1-1.6-1c-0.4,0.1-0.8,0.7-1.1,1.1c0.4,0.4,0.8,1,1.2,1C142.8,678.6,143.3,678,143.9,677.4z"/>
	<path class="st0" d="M56.8,675.9c7.4-12.9,14.7-25.5,22.1-38.3c0.9,0.5,1.8,1,2.8,1.5c-7.4,12.8-14.7,25.5-22.1,38.4
		c7.4,12.8,14.7,25.5,22.1,38.2c-0.9,0.6-1.7,1.1-2.7,1.7c-0.5-0.9-1.1-1.7-1.6-2.6c-6.2-10.8-12.5-21.5-18.6-32.3
		c-1.4-2.4-2.9-3.5-5.8-3.4c-12.2,0.2-24.5,0.1-36.7,0.1c-1.1,0-2.3,0-3.6,0c0-1.1-0.1-2.1-0.1-3.2
		C27.3,675.9,41.9,675.9,56.8,675.9z M57.8,679.1c0.5-0.7,1.1-1.2,1-1.6c0-0.4-0.8-1-1.2-1c-0.4,0-1,0.7-1,1.1
		C56.6,678,57.3,678.4,57.8,679.1z"/>
	<path class="st0" d="M845.8,885c0-1.2,0-2,0-3.1c1.2,0,2.4,0,3.5,0c12.6,0,25.3,0,37.9,0.1c2.1,0,3.1-0.7,4.1-2.4
		c6.2-11,12.6-21.9,18.9-32.9c0.6-1,1.2-2,1.8-3.1c0.9,0.5,1.7,1,2.8,1.6c-7.4,12.8-14.7,25.5-22.1,38.3c7.4,12.8,14.6,25.4,22,38.2
		c-0.9,0.6-1.7,1.1-2.7,1.7c-0.6-1-1.2-1.9-1.8-2.9c-6.3-10.9-12.6-21.7-18.7-32.6c-1.2-2.2-2.7-2.9-5.1-2.9
		c-12.4,0.1-24.9,0.1-37.3,0.1C848.1,885,846.9,885,845.8,885z M892.4,883.6c-0.7-0.6-1.1-1.1-1.5-1.2c-0.3-0.1-1.1,0.5-1.1,0.7
		c0.1,0.5,0.5,1.2,0.8,1.3C891.1,884.5,891.6,884,892.4,883.6z"/>
	<path class="st0" d="M782.6,881.9c0,1.1,0,2,0,3.1c-1.2,0-2.4,0-3.5,0c-12.5,0-25.1,0.1-37.6-0.1c-2.3,0-3.5,0.7-4.6,2.7
		c-6.2,10.9-12.5,21.8-18.8,32.6c-0.6,1-1.2,2-1.8,3.1c-0.9-0.5-1.7-1-2.7-1.6c7.3-12.7,14.7-25.5,22.1-38.2
		c-7.4-12.8-14.7-25.4-22-38.2c0.9-0.6,1.7-1.1,2.7-1.7c7.4,12.7,14.7,25.5,22.2,38.4C753.1,881.9,767.8,881.9,782.6,881.9z
		 M737,885.1c0.3-0.2,0.5-0.3,0.8-0.5c0.3-0.5,0.7-0.9,0.7-1.4c0-0.3-0.8-0.9-1-0.8c-0.5,0.1-1.1,0.6-1.1,1.1
		C736.3,884,736.8,884.6,737,885.1z"/>
	<path class="st0" d="M500.4,881.9c14.7,0,29.4,0,44.2,0c0,1.1,0,2,0,3.1c-1.2,0-2.4,0-3.5,0c-12.5,0-25.1,0.1-37.6-0.1
		c-2.3,0-3.5,0.7-4.6,2.7c-6.2,10.9-12.5,21.8-18.8,32.6c-0.6,1-1.2,2-1.8,3.1c-0.9-0.5-1.7-1-2.7-1.6c7.3-12.7,14.7-25.5,22.1-38.3
		c-7.4-12.7-14.6-25.4-22-38.2c0.9-0.6,1.7-1.1,2.7-1.7C485.5,856.2,492.9,869,500.4,881.9z M499.6,882c-0.6,0.6-0.9,1-1.3,1.4
		c0.4,0.4,0.8,0.9,1.2,1c0.3,0.1,1-0.5,1-0.8C500.5,883.1,500,882.7,499.6,882z"/>
	<path class="st0" d="M438.8,921.7c-1,0.6-1.8,1.1-2.7,1.6c-0.6-0.9-1.2-1.9-1.8-2.9c-6.3-11-12.7-21.9-18.9-32.9
		c-1.1-2-2.4-2.7-4.6-2.7c-12.5,0.1-25.1,0.1-37.6,0.1c-1.1,0-2.2,0-3.5,0c0-1.1,0-2,0-3.1c14.7,0,29.3,0,44.1,0
		c7.4-12.7,14.7-25.5,22.2-38.3c0.9,0.5,1.7,1,2.8,1.6c-7.3,12.7-14.7,25.5-22.1,38.3C424.1,896.3,431.4,909,438.8,921.7z
		 M416.4,883.4c-0.8-0.4-1.2-0.9-1.7-0.9c-0.3,0-0.7,0.6-1,0.9c0.4,0.4,0.7,1,1.1,1.1C415.2,884.5,415.6,883.9,416.4,883.4z"/>
	<path class="st0" d="M262.3,881.9c14.7,0,29.4,0,44.2,0c0,1.1,0,2,0,3.1c-1.2,0-2.4,0-3.5,0c-12.5,0-25.1,0.1-37.6-0.1
		c-2.3,0-3.5,0.8-4.6,2.7c-6.2,10.9-12.5,21.8-18.8,32.6c-0.6,1-1.2,2-1.8,3c-0.9-0.5-1.7-1-2.7-1.6c7.4-12.8,14.7-25.5,22-38.2
		c-7.4-12.8-14.7-25.4-22-38.2c0.9-0.6,1.7-1.1,2.7-1.7C247.5,856.3,254.9,869,262.3,881.9z M263,883.3c-0.8-0.4-1.3-0.9-1.7-0.9
		c-0.3,0-0.7,0.6-1,0.9c0.4,0.4,0.8,1,1.2,1C261.8,884.5,262.2,883.9,263,883.3z"/>
	<path class="st0" d="M973.6,608.8c-7.5-12.9-14.8-25.6-22.1-38.2c1-0.6,1.7-1.1,2.7-1.7c7.3,12.7,14.7,25.4,22.1,38.3
		c14.7,0,29.4,0,44.2,0c0,1.1,0,2,0,3.2c-1.1,0-2.3,0-3.4,0c-12,0-24.1,0-36.1,0c-5.7,0-4.2-0.8-6.9,3.9
		c-6.1,10.5-12.1,21-18.2,31.5c-0.6,1-1.2,1.9-1.8,2.9c-0.9-0.5-1.7-1-2.7-1.6C958.9,634.4,966.2,621.7,973.6,608.8z M975.5,607.4
		c-0.5,0.7-0.8,1.1-1.1,1.5c0.4,0.3,0.8,0.8,1.3,0.9c0.3,0,1-0.7,0.9-0.9C976.5,608.5,976,608.1,975.5,607.4z"/>
	<path class="st0" d="M912.1,569c0.9,0.5,1.7,0.9,2.8,1.5c-7.3,12.7-14.7,25.4-22.1,38.3c7.3,12.7,14.7,25.4,22,38.2
		c-0.9,0.6-1.7,1-2.7,1.7c-0.6-0.9-1.2-1.8-1.7-2.8c-6.4-11-12.8-22.1-19.1-33.2c-1.1-1.9-2.3-2.5-4.4-2.5
		c-12.5,0.1-25.1,0.1-37.6,0.1c-1.1,0-2.3,0-3.6,0c0-1,0-1.9,0-3.1c1.1,0,2.2,0,3.3,0c12.7,0,25.3-0.1,37.9,0.1
		c2.2,0,3.3-0.7,4.4-2.5c6.2-11,12.6-21.9,18.9-32.9C910.9,571,911.5,570,912.1,569z M892.5,609c-0.7-0.5-1.1-1.2-1.5-1.1
		c-0.4,0-0.8,0.7-1.2,1c0.3,0.3,0.6,1,1,1C891.2,609.9,891.7,609.4,892.5,609z"/>
	<path class="st0" d="M716.2,648.7c-0.9-0.5-1.7-1-2.7-1.6c7.3-12.7,14.7-25.4,22.1-38.3c-7.4-12.8-14.7-25.5-22-38.2
		c1-0.6,1.7-1.1,2.7-1.7c7.4,12.7,14.7,25.4,22.2,38.4c14.7,0,29.4,0,44.2,0c0,1.1,0,2,0,3.1c-1.2,0-2.3,0-3.4,0
		c-12.5,0-25.1,0.1-37.6-0.1c-2.2,0-3.5,0.6-4.7,2.6c-6.2,11-12.6,21.9-18.9,32.9C717.4,646.8,716.8,647.8,716.2,648.7z M739,608.7
		c-0.8-0.4-1.3-0.9-1.7-0.9c-0.3,0-0.7,0.6-1,0.9c0.4,0.4,0.8,1,1.2,1C737.9,609.9,738.3,609.3,739,608.7z"/>
	<path class="st0" d="M654.7,608.9c7.4,12.8,14.7,25.5,22.1,38.3c-1,0.6-1.8,1.1-2.7,1.6c-0.6-0.9-1.2-1.9-1.8-2.9
		c-6.3-11-12.7-21.9-18.9-32.9c-1.1-2-2.4-2.7-4.6-2.7c-12.5,0.1-25.1,0.1-37.6,0.1c-1.1,0-2.3,0-3.5,0c0-1.1,0-2,0-3.1
		c14.7,0,29.3,0,44.1,0c7.4-12.7,14.7-25.5,22.2-38.3c0.9,0.5,1.7,1,2.8,1.6C669.5,583.3,662.1,596.1,654.7,608.9z M652.8,607.4
		c-0.5,0.7-1,1.1-1.1,1.5c0,0.3,0.7,0.9,0.9,0.9c0.5-0.1,0.9-0.6,1.3-0.9C653.7,608.5,653.3,608.1,652.8,607.4z"/>
	<path class="st0" d="M544.6,607.3c0,1.2,0,2,0,2.9c-0.4,0.1-0.8,0.2-1.1,0.2c-9,0-18,0-27.1,0c-4.4,0-8.7,0.1-13.1,0
		c-2.1-0.1-3.3,0.6-4.4,2.5c-6.3,11.2-12.8,22.3-19.2,33.4c-0.5,0.8-1,1.6-1.5,2.5c-0.9-0.5-1.7-1-2.7-1.6
		c7.3-12.7,14.6-25.4,22.1-38.2c-7.3-12.7-14.7-25.4-22.1-38.3c1-0.6,1.8-1.1,2.7-1.7c7.4,12.8,14.8,25.5,22.1,38.3
		C515.1,607.3,529.7,607.3,544.6,607.3z M499.3,610.3c0.6-0.6,1.1-1,1.2-1.5c0.1-0.3-0.6-1-0.9-1c-0.5,0.1-1.1,0.5-1.3,0.9
		C498.3,609,498.9,609.6,499.3,610.3z"/>
	<path class="st0" d="M438.8,647.2c-1.1,0.6-1.9,1.1-2.8,1.6c-3.6-6.2-7.2-12.4-10.7-18.6c-3.4-5.8-6.8-11.6-10.1-17.5
		c-0.9-1.7-2-2.3-3.9-2.3c-12.6,0.1-25.3,0-37.9,0c-1.1,0-2.3,0-3.6,0c0-1,0-1.9,0-2.9c0.3-0.1,0.7-0.2,1.1-0.2
		c12.8,0,25.5,0,38.3,0c5.9,0,4.2,0.9,7.1-4.1c6.1-10.4,12-20.8,18.1-31.2c0.6-1,1.2-1.9,1.8-3c0.9,0.5,1.6,0.9,2.8,1.5
		c-7.3,12.7-14.6,25.4-22.1,38.3C424,621.6,431.4,634.3,438.8,647.2z M416.3,609.3c-0.4-0.6-0.7-1.2-1-1.3c-0.5-0.1-1,0.3-1.5,0.4
		c0.2,0.5,0.3,1.2,0.7,1.4C414.8,609.9,415.5,609.5,416.3,609.3z"/>
	<path class="st0" d="M240.1,648.7c-0.9-0.5-1.7-1-2.7-1.6c7.3-12.7,14.7-25.4,22.1-38.3c-7.4-12.8-14.7-25.5-22-38.2
		c1-0.6,1.7-1.1,2.7-1.7c7.4,12.7,14.7,25.4,22.2,38.3c14.7,0,29.4,0,44.2,0c0,1.1,0,2,0,3.1c-1.2,0-2.3,0-3.4,0
		c-12.5,0-25.1,0.1-37.6-0.1c-2.2,0-3.5,0.6-4.7,2.6c-6.2,11-12.6,21.9-18.9,32.9C241.3,646.8,240.7,647.8,240.1,648.7z
		 M261.5,607.4c-0.6,0.6-0.9,1-1.3,1.4c0.4,0.4,0.8,0.9,1.2,1c0.3,0.1,1-0.5,1-0.8C262.4,608.5,262,608.1,261.5,607.4z"/>
	<path class="st0" d="M198,568.9c1,0.6,1.7,1.1,2.7,1.7c-7.3,12.7-14.7,25.4-22.1,38.3c7.4,12.8,14.7,25.5,22.1,38.3
		c-1,0.6-1.8,1.1-2.7,1.6c-0.6-0.9-1.2-1.9-1.8-2.9c-6.3-11-12.7-21.9-18.9-32.9c-1.1-2-2.4-2.7-4.6-2.7
		c-12.5,0.1-25.1,0.1-37.6,0.1c-1.1,0-2.2,0-3.5,0c0-1.1,0-2,0-3.1c14.7,0,29.3,0,44.1,0C183.2,594.6,190.5,581.9,198,568.9z
		 M176.6,607.4c-0.4,0.7-0.9,1.2-0.9,1.6c0,0.3,0.7,0.9,1,0.8c0.5-0.1,0.8-0.7,1.2-1C177.6,608.4,177.2,608,176.6,607.4z"/>
	<path class="st0" d="M131.6,335.8c0-1.1,0-1.9,0-2.9c0.4-0.1,0.7-0.2,1.1-0.2c10.8,0,21.6,0,32.3,0c2.4,0,4.8-0.2,7.2,0.1
		c2.6,0.2,4.1-0.6,5.4-3c6.1-10.9,12.4-21.6,18.6-32.4c0.6-1,1.2-2,1.8-3c0.9,0.5,1.7,1,2.7,1.6c-7.3,12.7-14.6,25.4-22.1,38.3
		c7.3,12.7,14.6,25.4,22,38.2c-0.9,0.6-1.8,1.1-2.7,1.7c-1.2-2.1-2.4-4.1-3.6-6.2c-5.7-9.8-11.3-19.5-16.9-29.4
		c-1.2-2.1-2.4-2.9-4.8-2.9c-12.4,0.1-24.9,0.1-37.3,0.1C134.2,335.8,133,335.8,131.6,335.8z M176.9,332.8c-0.6,0.6-1.1,1-1.2,1.4
		c-0.1,0.3,0.6,1,0.8,1c0.5-0.1,1.2-0.4,1.3-0.9C177.9,334.1,177.3,333.5,176.9,332.8z"/>
	<path class="st0" d="M726.7,953.7c0-1.3,0-2.1,0-3.1c0.4,0,0.8-0.1,1.1-0.1c12.2,0,24.5,0,36.7,0c2.2,0,4.7,0.4,6.3-0.5
		c1.6-0.9,2.3-3.3,3.3-5.1c5.8-10,11.5-19.9,17.3-29.9c0.5-0.9,1.1-1.8,1.6-2.7c0.9,0.5,1.6,0.9,2.8,1.5
		c-7.3,12.7-14.7,25.4-22.1,38.4c7.3,12.7,14.6,25.4,22,38.2c-0.9,0.6-1.7,1.1-2.7,1.7c-0.9-1.5-1.7-2.9-2.6-4.4
		c-6-10.4-12.1-20.8-18-31.3c-1.2-2.1-2.5-2.8-4.9-2.8c-12.3,0.1-24.7,0.1-37,0.1C729.4,953.7,728.2,953.7,726.7,953.7z
		 M773.4,952.2c-0.7-0.5-1.1-1.2-1.5-1.2c-0.4,0-0.8,0.6-1.3,1c0.4,0.4,0.7,1.1,1.1,1.2C772.2,953.3,772.7,952.7,773.4,952.2z"/>
	<path class="st0" d="M262.3,332.7c14.9,0,29.5,0,44.2,0c0,1.1,0,1.9,0,3.1c-1.2,0-2.3,0-3.4,0c-12.5,0-25.1,0.1-37.6-0.1
		c-2.3,0-3.5,0.7-4.6,2.7c-6.2,10.9-12.5,21.8-18.8,32.6c-0.6,1-1.2,2-1.8,3.1c-0.9-0.5-1.7-1-2.8-1.6c7.3-12.7,14.7-25.5,22.1-38.3
		c-7.3-12.7-14.6-25.4-22-38.2c0.9-0.6,1.7-1.1,2.7-1.8C247.5,307,254.9,319.8,262.3,332.7z M261.3,335.7c0.6-0.6,1.1-1,1.2-1.5
		c0.1-0.3-0.6-1-0.9-1c-0.5,0.1-1.2,0.5-1.3,0.9C260.2,334.4,260.8,335,261.3,335.7z"/>
	<path class="st0" d="M416.7,334.3c7.4,12.8,14.7,25.5,22,38.2c-1,0.6-1.7,1.1-2.7,1.7c-0.6-0.9-1.2-1.9-1.7-2.9
		c-6.4-11-12.8-22.1-19.1-33.2c-1-1.8-2.1-2.4-4.1-2.4c-12.6,0.1-25.3,0.1-37.9,0.1c-1.1,0-2.3,0-3.5,0c0-1.1,0-2,0-3.1
		c14.8,0,29.5,0,44.2,0c7.5-12.9,14.8-25.6,22.2-38.4c1,0.6,1.7,1,2.8,1.6C431.4,308.7,424.1,321.4,416.7,334.3z M414.7,335.7
		c0.6-0.6,0.9-1.1,1.3-1.5c-0.4-0.3-0.8-0.9-1.3-1c-0.3-0.1-1,0.6-1,0.9C413.8,334.6,414.3,335,414.7,335.7z"/>
	<path class="st0" d="M497.5,334.2c-7.4-12.8-14.7-25.4-22-38.2c0.9-0.6,1.7-1.1,2.7-1.7c7.4,12.8,14.7,25.5,22.2,38.4
		c14.7,0,29.4,0,44.2,0c0,1.1,0,2,0,3.1c-1.2,0-2.4,0-3.5,0c-12.4,0-24.9,0.1-37.3-0.1c-2.6,0-3.9,0.9-5.1,3
		c-6.2,10.9-12.5,21.8-18.8,32.6c-0.5,0.9-1.1,1.8-1.7,2.8c-0.9-0.5-1.7-1-2.7-1.6C482.8,359.7,490.2,347,497.5,334.2z M497.9,334.1
		c0.7,0.6,1.1,1.1,1.5,1.2c0.3,0.1,1.1-0.5,1.1-0.7c-0.1-0.5-0.5-1.2-0.8-1.3C499.2,333.2,498.7,333.7,497.9,334.1z"/>
	<path class="st0" d="M654.7,334.3c7.4,12.8,14.7,25.5,22,38.2c-0.9,0.6-1.6,1-2.6,1.6c-0.3-0.3-0.6-0.7-0.8-1.1
		c-6.4-11.1-12.9-22.3-19.3-33.4c-0.4-0.6-0.8-1.2-1.1-1.9c-0.6-1.6-1.8-2-3.4-2c-7,0.1-14.1,0-21.1,0c-6.8,0-13.7,0-20.7,0
		c0-1,0-1.9,0-2.9c0.4,0,0.9-0.1,1.4-0.1c12.5,0,25.1,0,37.6,0c0.8,0,1.7-0.1,2.5,0c1.9,0.2,3-0.6,3.9-2.2
		c4.7-8.3,9.5-16.5,14.3-24.8c2.2-3.8,4.4-7.5,6.5-11.3c0.9,0.5,1.7,0.9,2.8,1.6C669.5,308.6,662.2,321.3,654.7,334.3z M652.8,335.7
		c0.5-0.6,0.9-1.1,1.3-1.5c-0.4-0.3-0.8-0.9-1.3-1c-0.3-0.1-1,0.6-1,0.9C651.8,334.6,652.3,335,652.8,335.7z"/>
	<path class="st0" d="M713.5,296c1-0.6,1.7-1.1,2.7-1.7c7.3,12.7,14.7,25.4,22.1,38.3c14.7,0,29.4,0,44.2,0c0,1.1,0,2,0,3.2
		c-1.1,0-2.2,0-3.4,0c-12.4,0-24.9,0.1-37.3-0.1c-2.6,0-4,0.9-5.3,3.1c-6.1,10.8-12.4,21.6-18.6,32.4c-0.6,1-1.2,1.9-1.8,2.9
		c-0.9-0.5-1.7-1-2.7-1.6c7.3-12.7,14.7-25.4,22.1-38.3C728.2,321.5,720.9,308.8,713.5,296z M739,334.1c-0.8-0.4-1.3-0.9-1.7-0.9
		c-0.3,0-0.7,0.6-1,0.9c0.4,0.4,0.8,1,1.2,1C737.9,335.3,738.3,334.7,739,334.1z"/>
	<path class="st0" d="M889.9,332.7c7.5-12.9,14.8-25.6,22.2-38.4c1,0.6,1.7,1,2.8,1.6c-7.3,12.7-14.7,25.5-22.1,38.3
		c7.4,12.8,14.7,25.5,22,38.2c-1,0.6-1.7,1.1-2.6,1.7c-0.6-0.9-1.2-1.9-1.7-2.8c-6.3-11-12.7-21.9-18.9-32.9c-1.1-2-2.3-2.7-4.6-2.7
		c-12.5,0.1-25.1,0.1-37.6,0.1c-1.1,0-2.3,0-3.5,0c0-1.1,0-1.9,0-3.1C860.5,332.7,875.2,332.7,889.9,332.7z M890.9,335.7
		c0.5-0.7,1.1-1.2,1-1.5c-0.1-0.4-0.8-0.8-1.3-0.9c-0.3,0-1,0.7-0.9,0.9C889.9,334.7,890.4,335,890.9,335.7z"/>
	<path class="st0" d="M1020.6,332.7c0,1.1,0,2,0,3.1c-1.2,0-2.4,0-3.5,0c-12.5,0-25.1,0.1-37.6-0.1c-2.3,0-3.5,0.7-4.6,2.7
		c-6.2,10.9-12.5,21.8-18.8,32.6c-0.6,1-1.2,2-1.8,3.1c-0.9-0.5-1.7-1-2.7-1.6c7.3-12.7,14.7-25.5,22-38.2
		c-7.4-12.8-14.7-25.4-22-38.2c0.9-0.6,1.7-1.1,2.7-1.7c7.4,12.7,14.7,25.5,22.2,38.4C991.2,332.7,1005.9,332.7,1020.6,332.7z
		 M977.1,334.1c-0.8-0.4-1.3-0.9-1.7-0.9c-0.3,0-0.7,0.6-1,0.9c0.4,0.4,0.8,1,1.2,1C975.9,335.3,976.4,334.7,977.1,334.1z"/>
	<path class="st0" d="M81.7,441.2c-0.9,0.6-1.7,1.1-2.6,1.6c-0.5-0.8-1-1.5-1.5-2.3c-6.4-11-12.8-22-19.1-33.1
		c-1.2-2.2-2.7-2.9-5.1-2.9c-12.3,0.1-24.7,0.1-37,0.1c-1.2,0-2.4,0-3.7,0c0-1.2,0-2.1,0-3.3c14.8,0,29.5,0,44.2,0
		c7.4-12.8,14.7-25.5,22.1-38.2c0.9,0.5,1.7,0.9,2.8,1.5C74.4,377.3,67,390,59.6,402.9C67,415.7,74.3,428.4,81.7,441.2z M57.8,401.4
		c-0.5,0.6-1.2,1.1-1.2,1.5c0,0.4,0.7,0.8,1,1.3c0.4-0.4,1.1-0.7,1.2-1.1C58.9,402.6,58.3,402.1,57.8,401.4z"/>
	<path class="st0" d="M1033.9,990.4c-1,0.6-1.8,1.1-2.7,1.6c-0.5-0.9-1.1-1.7-1.6-2.6c-6.3-10.9-12.7-21.9-18.9-32.9
		c-1.2-2.1-2.4-2.9-4.9-2.9c-12.3,0.1-24.7,0.1-37,0.1c-1.2,0-2.5,0-3.9,0c0-1.1,0-2.1,0-3.2c14.6,0,29.2,0,44.1,0
		c7.4-12.7,14.7-25.5,22.1-38.3c0.9,0.5,1.8,1,2.8,1.6c-7.4,12.8-14.7,25.5-22.1,38.4C1019.2,964.9,1026.5,977.6,1033.9,990.4z
		 M1011.5,952.2c-0.7-0.5-1.1-1.2-1.5-1.2c-0.4,0-0.8,0.6-1.3,1c0.4,0.4,0.7,1.1,1.1,1.2C1010.2,953.3,1010.8,952.7,1011.5,952.2z"
		/>
	<path class="st0" d="M59.6,128.3c7.4,12.9,14.7,25.5,22.1,38.3c-0.9,0.6-1.7,1-2.6,1.6c-0.5-0.7-1-1.5-1.5-2.2
		c-6.4-11.1-12.9-22.2-19.2-33.4c-1.1-2-2.4-2.7-4.6-2.7c-12.4,0.1-24.9,0.1-37.3,0.1c-1.2,0-2.5,0-3.8,0c0-1.2,0-2.1,0-3.3
		c1.2,0,2.3,0,3.4,0c12.6,0,25.3-0.1,37.9,0.1c2.2,0,3.3-0.7,4.4-2.6c6.1-10.8,12.4-21.6,18.6-32.3c0.7-1.2,1.4-2.3,2-3.5
		c0.9,0.5,1.7,1,2.7,1.6C74.4,102.7,67,115.4,59.6,128.3z M57.8,126.8c-0.6,0.6-1.2,1.1-1.2,1.5c0,0.4,0.7,0.8,1,1.3
		c0.4-0.4,1.1-0.7,1.2-1.1C58.9,128,58.3,127.5,57.8,126.8z"/>
	<path class="st0" d="M140.5,128.3c-7.4-12.9-14.7-25.5-22.1-38.3c0.9-0.6,1.7-1.1,2.7-1.7c0.7,1.1,1.3,2.2,1.9,3.2
		c6.3,10.9,12.6,21.7,18.8,32.6c1.1,1.9,2.2,2.5,4.4,2.5c12.5-0.1,25.1-0.1,37.6-0.1c1.1,0,2.3,0,3.6,0c0,1.1,0,2,0,3.3
		c-1.3,0-2.5,0-3.7,0c-12.4,0-24.9,0.1-37.3-0.1c-2.3,0-3.5,0.7-4.6,2.7c-6.3,11.1-12.7,22.1-19.1,33.1c-0.5,0.8-1,1.6-1.5,2.5
		c-0.9-0.5-1.7-1-2.7-1.6C125.8,153.8,133.1,141.2,140.5,128.3z M143.9,128.2c-0.7-0.4-1.2-1-1.6-1c-0.4,0.1-0.7,0.7-1.1,1.2
		c0.4,0.4,0.8,1,1.3,1C142.9,129.4,143.3,128.8,143.9,128.2z"/>
	<path class="st0" d="M356.4,89.9c1.1-0.6,1.9-1.1,2.8-1.6c3.1,5.4,6.2,10.6,9.2,15.9c3.6,6.3,7.2,12.6,10.9,18.8
		c2.5,4.2,1.1,3.5,6.2,3.5c12.1,0,24.3,0,36.4,0c1.1,0,2.3,0,3.6,0c0,1,0,1.9,0,2.9c-0.3,0.1-0.7,0.3-1.1,0.3c-5.1,0-10.2,0-15.2,0
		c-8.1,0-16.2,0.1-24.3-0.1c-2.6-0.1-4.1,0.7-5.4,3c-6.1,10.9-12.5,21.8-18.8,32.6c-0.5,0.9-1.1,1.8-1.6,2.7c-0.9-0.5-1.6-1-2.7-1.6
		c7.3-12.7,14.7-25.4,22.1-38.3C371.2,115.5,363.8,102.8,356.4,89.9z M382,128.2c-0.7-0.5-1.2-1-1.6-1c-0.4,0.1-0.7,0.7-1.1,1.2
		c0.4,0.4,0.8,1,1.3,1C380.9,129.4,381.3,128.8,382,128.2z"/>
	<path class="st0" d="M555,168.2c-1-1.7-1.9-3.3-2.9-4.9c-5.8-10.1-11.7-20.1-17.3-30.2c-1.3-2.4-2.7-3.3-5.5-3.3
		c-12.2,0.2-24.5,0.1-36.7,0.1c-1.2,0-2.5,0-3.8,0c0-1.1,0-2,0-3.1c0.3-0.1,0.7-0.2,1.1-0.2c12.9,0,25.7,0,38.6,0
		c5.5,0,4,0.8,6.7-3.8c6.1-10.5,12.1-21,18.2-31.5c0.6-1,1.2-1.9,1.8-2.9c0.9,0.5,1.7,0.9,2.8,1.5c-7.3,12.7-14.7,25.4-22.1,38.4
		c7.3,12.7,14.6,25.4,22.1,38.2C556.8,167.1,556,167.6,555,168.2z M535.4,128.2c-0.7-0.5-1.2-1-1.6-1c-0.4,0.1-1.1,0.8-1,1.1
		c0,0.4,0.7,1,1.2,1C534.3,129.4,534.7,128.8,535.4,128.2z"/>
	<path class="st0" d="M616.6,128.3c-7.5-12.9-14.7-25.6-22.1-38.3c0.9-0.6,1.7-1,2.6-1.6c0.2,0.2,0.5,0.5,0.7,0.8
		c6.3,10.9,12.5,21.7,18.8,32.6c0.6,1.1,1.3,2.1,1.8,3.2c0.6,1.1,1.3,1.8,2.7,1.6c0.7-0.1,1.5,0,2.2,0c12.2,0,24.5,0,36.7,0
		c1.1,0,2.3,0,3.5,0c0,1,0,1.9,0,2.9c-0.3,0.1-0.7,0.3-1.1,0.3c-5.5,0-11,0-16.5,0c-7.8,0-15.6,0.1-23.3-0.1c-2.4,0-3.7,0.6-4.9,2.8
		c-6.3,11.1-12.7,22.1-19.1,33.2c-0.5,0.8-1,1.6-1.5,2.4c-0.9-0.5-1.6-1-2.7-1.6C601.8,153.9,609.2,141.2,616.6,128.3z M620,128.2
		c-0.7-0.5-1.2-1-1.6-1c-0.4,0.1-0.7,0.7-1.1,1.2c0.4,0.4,0.8,1,1.3,1C618.9,129.4,619.4,128.8,620,128.2z"/>
	<path class="st0" d="M835.2,168.2c-0.9-0.5-1.6-1-2.7-1.6c7.3-12.7,14.6-25.4,22.1-38.3c-7.3-12.7-14.7-25.5-22.1-38.3
		c1-0.6,1.8-1.1,2.7-1.7c3.1,5.4,6.2,10.6,9.2,15.9c3.9,6.7,7.8,13.4,11.6,20.2c0.9,1.7,2,2.2,3.9,2.2c12.6-0.1,25.3,0,37.9,0
		c1.1,0,2.3,0,3.6,0c0,1,0,1.9,0,2.9c-0.2,0.1-0.4,0.3-0.7,0.3c-1.1,0.1-2.3,0.1-3.4,0.1c-12.2,0-24.5,0.1-36.7-0.1
		c-2.5,0-3.9,0.9-5.1,3c-6.2,10.9-12.5,21.7-18.8,32.6C836.4,166.3,835.8,167.2,835.2,168.2z M856.6,129.9c0.5-0.7,1.1-1.2,1-1.6
		c0-0.4-0.8-1-1.2-1c-0.4,0-1,0.7-1,1.1C855.4,128.8,856,129.2,856.6,129.9z"/>
	<path class="st0" d="M1033.8,166.6c-0.9,0.6-1.7,1-2.6,1.6c-0.5-0.7-1-1.5-1.5-2.3c-6.4-11.1-12.9-22.2-19.2-33.4
		c-1.1-2-2.4-2.7-4.6-2.7c-12.4,0.1-24.9,0.1-37.3,0.1c-1.2,0-2.5,0-3.8,0c0-1.2,0-2.1,0-3.3c1.2,0,2.3,0,3.4,0
		c12.5,0,25.1-0.1,37.6,0.1c2.4,0,3.7-0.8,4.8-2.9c6.1-10.7,12.3-21.4,18.5-32.1c0.7-1.2,1.4-2.3,2-3.5c0.9,0.6,1.7,1,2.7,1.6
		c-7.3,12.7-14.7,25.4-22.1,38.3C1019.1,141,1026.5,153.8,1033.8,166.6z M1011.5,128.4c-0.7-0.5-1.1-1.2-1.5-1.2
		c-0.4,0-0.8,0.6-1.3,1c0.4,0.4,0.7,1.1,1.1,1.2C1010.2,129.5,1010.7,128.9,1011.5,128.4z"/>
	<path class="st0" d="M187.5,401.2c0,1.3,0,2.1,0,3.3c-1.3,0-2.5,0-3.7,0c-12.4,0-24.9,0.1-37.3-0.1c-2.4,0-3.7,0.7-4.9,2.8
		c-6.2,11-12.6,21.9-18.9,32.9c-0.5,0.9-1.1,1.8-1.6,2.7c-0.9-0.6-1.7-1-2.7-1.6c7.3-12.7,14.7-25.4,22.1-38.3
		c-7.4-12.8-14.7-25.5-22.1-38.3c0.9-0.6,1.7-1,2.7-1.7c7.3,12.7,14.7,25.4,22.1,38.3C157.9,401.2,172.6,401.2,187.5,401.2z
		 M143.9,402.8c-0.7-0.5-1.2-1-1.6-1c-0.4,0.1-0.7,0.7-1.1,1.2c0.4,0.4,0.8,1,1.3,1C142.9,404,143.3,403.4,143.9,402.8z"/>
	<path class="st0" d="M832.5,913.8c1-0.6,1.8-1.1,2.7-1.7c7.4,12.7,14.7,25.5,22.2,38.3c14.7,0,29.4,0,44.2,0c0,1.1,0,2,0,3.2
		c-1.3,0-2.5,0-3.8,0c-12.4,0-24.9,0.1-37.3-0.1c-2.3,0-3.5,0.7-4.7,2.6c-6.3,11.1-12.7,22.1-19.1,33.1c-0.5,0.8-1,1.6-1.5,2.5
		c-0.9-0.5-1.7-1-2.7-1.6c7.3-12.7,14.6-25.3,22.1-38.3C847.3,939.4,840,926.7,832.5,913.8z M858.1,952.2c-0.7-0.5-1.1-1.2-1.5-1.1
		c-0.4,0-0.8,0.6-1.3,1c0.4,0.4,0.7,1.1,1.1,1.2C856.8,953.3,857.3,952.7,858.1,952.2z"/>
	<path class="st0" d="M297.7,402.9c7.4,12.8,14.7,25.5,22.1,38.2c-1,0.6-1.7,1.1-2.7,1.7c-0.5-0.9-1.1-1.7-1.6-2.6
		c-6.3-10.9-12.7-21.9-18.9-32.9c-1.2-2.1-2.4-2.9-4.8-2.9c-12.3,0.1-24.7,0.1-37,0.1c-1.2,0-2.5,0-3.9,0c0-1.1,0-2.1,0-3.2
		c14.6,0,29.2,0,44.1,0c7.4-12.7,14.7-25.5,22.1-38.3c0.9,0.5,1.8,1,2.8,1.5C312.4,377.4,305.1,390.1,297.7,402.9z M297.4,403
		c-0.6-0.5-1.1-1.2-1.5-1.2c-0.4,0-0.8,0.6-1.3,1c0.4,0.4,0.7,1.1,1.1,1.2C296.1,404.1,296.6,403.5,297.4,403z"/>
	<path class="st0" d="M488.7,404.5c0-1.2,0-2.1,0-3.3c14.8,0,29.5,0,44.2,0c7.4-12.8,14.7-25.5,22.1-38.2c0.9,0.5,1.7,0.9,2.8,1.5
		c-7.4,12.8-14.7,25.5-22.1,38.4c7.4,12.8,14.7,25.5,22.1,38.2c-0.9,0.6-1.7,1.1-2.6,1.6c-0.5-0.8-1-1.5-1.5-2.3
		c-6.3-10.9-12.6-21.7-18.8-32.6c-1.5-2.6-3.1-3.5-6.1-3.5c-12.2,0.2-24.5,0.1-36.7,0.1C491,404.5,489.9,404.5,488.7,404.5z
		 M533.9,404.5c0.5-0.7,1.1-1.2,1-1.6c0-0.4-0.8-1-1.2-1c-0.4,0-1,0.7-1,1.1C532.7,403.4,533.3,403.8,533.9,404.5z"/>
	<path class="st0" d="M488.7,953.7c0-1.2,0-2.1,0-3.3c14.8,0,29.5,0,44.2,0c7.4-12.8,14.7-25.5,22.1-38.2c0.9,0.5,1.7,0.9,2.8,1.5
		c-7.4,12.8-14.7,25.5-22.1,38.4c7.4,12.8,14.7,25.5,22.1,38.2c-0.9,0.6-1.7,1.1-2.7,1.7c-0.5-0.9-1.1-1.7-1.6-2.6
		c-6.2-10.8-12.5-21.5-18.6-32.3c-1.5-2.6-3.1-3.5-6.1-3.4c-12.1,0.2-24.3,0.1-36.4,0.1C491.2,953.7,490,953.7,488.7,953.7z
		 M533.7,953.7c0.6-0.7,1.2-1.1,1.2-1.5c0-0.4-0.6-1.1-1-1.2c-0.4,0-1.1,0.6-1.2,1C532.7,952.5,533.2,953,533.7,953.7z"/>
	<path class="st0" d="M425.5,950.5c0,1.2,0,2,0,3.2c-1.3,0-2.5,0-3.8,0c-12.4,0-24.9,0.1-37.3-0.1c-2.3,0-3.5,0.7-4.7,2.6
		c-6.3,11.1-12.7,22.1-19.1,33.1c-0.5,0.8-1,1.6-1.5,2.5c-0.9-0.5-1.7-1-2.7-1.6c7.3-12.7,14.6-25.3,22.1-38.3
		c-7.3-12.7-14.6-25.4-22.1-38.3c0.9-0.6,1.7-1.1,2.7-1.7c7.4,12.7,14.7,25.5,22.2,38.4C396.1,950.5,410.8,950.5,425.5,950.5z
		 M382,952c-0.7-0.5-1.2-1-1.6-1c-0.4,0.1-0.8,0.7-1.1,1.1c0.4,0.4,0.8,1,1.2,1C380.9,953.2,381.3,952.6,382,952z"/>
	<path class="st0" d="M317,912.2c0.9,0.5,1.7,1,2.7,1.6c-7.3,12.7-14.7,25.4-22.1,38.3c7.3,12.7,14.7,25.5,22.1,38.3
		c-0.9,0.6-1.7,1-2.6,1.6c-0.5-0.7-1-1.5-1.5-2.2c-6.4-11.1-12.9-22.2-19.2-33.4c-1.1-2-2.4-2.7-4.6-2.7
		c-12.4,0.1-24.9,0.1-37.3,0.1c-1.2,0-2.5,0-3.8,0c0-1.2,0-2.1,0-3.3c1.2,0,2.3,0,3.4,0c12.6,0,25.3-0.1,37.9,0.1
		c2.2,0,3.3-0.7,4.4-2.6c6.2-10.9,12.5-21.7,18.8-32.6C315.7,914.3,316.4,913.2,317,912.2z M295.9,950.6c-0.5,0.6-1.2,1.1-1.2,1.5
		c0,0.4,0.7,0.8,1,1.3c0.4-0.4,1.1-0.7,1.2-1.1C296.9,951.8,296.3,951.3,295.9,950.6z"/>
	<path class="st0" d="M616.6,402.9c-7.4-12.9-14.7-25.6-22.1-38.3c1-0.6,1.8-1.1,2.8-1.6c3.1,5.4,6.2,10.7,9.2,16
		c3.7,6.5,7.6,12.9,11.1,19.4c1.3,2.4,2.8,3,5.4,3c12.3-0.1,24.7-0.1,37-0.1c1.1,0,2.3,0,3.6,0c0,1,0,1.9,0,2.9
		c-0.3,0.1-0.7,0.3-1.1,0.3c-5,0-10,0-14.9,0c-8.2,0-16.4,0.1-24.6-0.1c-2.6-0.1-4.1,0.7-5.4,3c-6.1,10.9-12.5,21.8-18.8,32.6
		c-0.5,0.9-1.1,1.8-1.6,2.7c-0.9-0.5-1.6-1-2.7-1.6C601.8,428.5,609.1,415.8,616.6,402.9z M620,403c-0.6-0.5-1.1-1.2-1.5-1.2
		c-0.4,0-0.8,0.6-1.3,1c0.4,0.4,0.7,1.1,1.1,1.2C618.8,404.1,619.3,403.5,620,403z"/>
	<path class="st0" d="M56.8,950.5c7.4-12.9,14.7-25.5,22.1-38.3c0.9,0.5,1.8,1,2.8,1.5c-7.4,12.8-14.7,25.5-22.1,38.4
		c7.4,12.8,14.7,25.5,22.1,38.3c-1,0.6-1.7,1.1-2.7,1.6c-0.5-0.9-1.1-1.7-1.6-2.6c-6.3-10.9-12.7-21.9-18.9-32.9
		c-1.2-2.1-2.4-2.9-4.8-2.9c-12.3,0.1-24.7,0.1-37,0.1c-1.2,0-2.5,0-3.9,0c0-1.1,0-2.1,0-3.2C27.4,950.5,41.9,950.5,56.8,950.5z
		 M59.3,952.2c-0.7-0.5-1.1-1.2-1.5-1.2c-0.4,0-0.8,0.6-1.3,1c0.4,0.4,0.7,1.1,1.1,1.2C58.1,953.3,58.6,952.7,59.3,952.2z"/>
	<path class="st0" d="M976.5,881.9c14.7,0,29.4,0,44.2,0c0,1.1,0,2,0,3.1c-1.2,0-2.4,0-3.5,0c-12.5,0-25.1,0.1-37.6-0.1
		c-2.3,0-3.5,0.7-4.6,2.7c-6.2,10.9-12.5,21.8-18.8,32.6c-0.6,1-1.2,2-1.8,3.1c-0.9-0.5-1.7-1-2.7-1.6c7.3-12.7,14.7-25.5,22-38.2
		c-7.4-12.8-14.7-25.4-22-38.2c0.9-0.6,1.7-1.1,2.7-1.7C961.6,856.3,969,869,976.5,881.9z M975.4,884.9c0.6-0.6,1.1-1,1.2-1.5
		c0.1-0.3-0.6-1-0.9-1c-0.5,0.1-1.1,0.5-1.3,0.9C974.3,883.6,975,884.2,975.4,884.9z"/>
	<path class="st0" d="M773.7,402.9c7.4,12.8,14.7,25.5,22.1,38.2c-1,0.6-1.7,1.1-2.7,1.7c-0.5-0.9-1.1-1.7-1.6-2.6
		c-6.3-10.9-12.6-21.7-18.8-32.6c-1.3-2.3-2.6-3.2-5.3-3.1c-12.2,0.2-24.5,0.1-36.7,0.1c-1.2,0-2.5,0-3.9,0c0-1.1,0-2.1,0-3.2
		c14.6,0,29.2,0,44,0c7.4-12.7,14.7-25.4,22.1-38.3c0.9,0.5,1.7,1,2.8,1.5C788.5,377.3,781.2,390.1,773.7,402.9z M772,401.4
		c-0.6,0.6-1.2,1.1-1.2,1.5c0,0.4,0.7,0.8,1,1.3c0.4-0.4,1.1-0.7,1.2-1.1C773,402.6,772.4,402.1,772,401.4z"/>
	<path class="st0" d="M1011.8,402.9c7.4,12.8,14.7,25.5,22.1,38.2c-0.9,0.6-1.7,1.1-2.7,1.7c-0.5-0.9-1.1-1.7-1.6-2.6
		c-6.2-10.8-12.5-21.5-18.6-32.3c-1.4-2.4-2.9-3.5-5.8-3.4c-12.2,0.2-24.5,0.1-36.7,0.1c-1.1,0-2.3,0-3.6,0
		c-0.1-1.1-0.1-2.1-0.1-3.2c14.8,0,29.3,0,44.2,0c7.4-12.7,14.7-25.4,22.1-38.3c0.9,0.5,1.7,0.9,2.8,1.5
		C1026.5,377.3,1019.2,390.1,1011.8,402.9z M1011.5,403c-0.7-0.5-1.1-1.2-1.5-1.1c-0.4,0-0.8,0.6-1.2,1c0.4,0.4,0.7,1.1,1.1,1.2
		C1010.2,404.1,1010.7,403.5,1011.5,403z"/>
	<path class="st0" d="M1033.9,639.1c-7.4,12.8-14.7,25.5-22.1,38.4c7.3,12.7,14.6,25.4,22,38.2c-0.9,0.6-1.7,1.1-2.7,1.7
		c-0.9-1.5-1.7-2.9-2.6-4.3c-6.1-10.5-12.2-21-18.1-31.5c-1.1-1.9-2.3-2.5-4.4-2.5c-12.4,0.1-24.9,0-37.3,0.1c-1.2,0-2.5,0-3.9,0
		c0-1.1,0-2,0-3.1c0.3,0,0.7-0.1,1-0.1c11.7,0,23.4,0,35.1,0c1.9,0,3.7-0.1,5.6,0c1.8,0.2,2.8-0.7,3.6-2.2
		c6.2-10.9,12.5-21.7,18.8-32.6c0.7-1.2,1.3-2.3,2.1-3.5C1032,638.1,1032.8,638.5,1033.9,639.1z M1011.5,677.6
		c-0.7-0.5-1.1-1.2-1.5-1.2c-0.4,0-0.8,0.6-1.3,1c0.4,0.4,0.7,1.1,1.1,1.2C1010.2,678.7,1010.8,678.1,1011.5,677.6z"/>
	<path class="st0" d="M795.8,715.8c-0.9,0.6-1.7,1.1-2.7,1.7c-0.5-0.9-1.1-1.7-1.6-2.6c-6.1-10.6-12.2-21.2-18.4-31.8
		c-2.7-4.7-1.3-3.9-6.9-3.9c-11.9,0-23.8,0-35.8,0c-1.2,0-2.4,0-3.7,0c0-1.2,0-2.1,0-3.3c14.8,0,29.5,0,44.2,0
		c7.4-12.8,14.7-25.5,22.1-38.2c0.9,0.5,1.7,0.9,2.8,1.5c-7.4,12.8-14.7,25.5-22.1,38.4C781.1,690.3,788.4,703,795.8,715.8z
		 M771.9,679.1c0.5-0.7,1.1-1.2,1-1.6c0-0.4-0.8-1-1.2-1c-0.4,0-1,0.7-1,1.1C770.8,678,771.4,678.4,771.9,679.1z"/>
	<path class="st0" d="M663.5,675.8c0,1.1,0,2,0,3.3c-1.2,0-2.5,0-3.7,0c-12.4,0-24.9,0.1-37.3-0.1c-2.4,0-3.7,0.8-4.9,2.9
		C611.4,693,605,704,598.6,715c-0.4,0.7-0.9,1.4-1.4,2.3c-0.9-0.5-1.7-1-2.7-1.6c7.4-12.7,14.7-25.5,22.1-38.3
		c-7.4-12.8-14.7-25.5-22.1-38.3c1-0.6,1.7-1.1,2.7-1.7c7.3,12.7,14.7,25.4,22.1,38.3C634,675.8,648.7,675.8,663.5,675.8z
		 M620,677.6c-0.7-0.5-1.1-1.2-1.5-1.1c-0.4,0-0.8,0.6-1.3,1c0.4,0.4,0.7,1.1,1.1,1.2C618.8,678.7,619.3,678.1,620,677.6z"/>
	<path class="st0" d="M488.7,679.1c0-1.2,0-2,0-3.3c1.1,0,2.2,0,3.4,0c12.6,0,25.3-0.1,37.9,0.1c2.2,0,3.3-0.7,4.4-2.5
		c6.1-10.8,12.4-21.6,18.6-32.3c0.7-1.2,1.3-2.3,2-3.5c0.9,0.5,1.7,1,2.8,1.6c-7.3,12.7-14.7,25.4-22.1,38.4
		c7.3,12.7,14.7,25.4,22.1,38.2c-0.9,0.6-1.6,1-2.6,1.6c-0.5-0.7-1-1.4-1.5-2.2c-6.4-11.1-12.9-22.2-19.2-33.4
		c-1.1-1.9-2.3-2.7-4.6-2.7c-12.4,0.1-24.9,0.1-37.3,0.1C491.3,679.1,490.1,679.1,488.7,679.1z M533.9,676c-0.5,0.6-1.2,1.1-1.2,1.5
		c0,0.4,0.7,0.8,1,1.3c0.4-0.4,1.1-0.7,1.2-1.1C535,677.2,534.4,676.7,533.9,676z"/>
	<path class="st0" d="M250.7,679.1c0-1.3,0-2.2,0-3.2c14.7,0,29.3,0,44.2,0c7.4-12.7,14.7-25.5,22.1-38.3c0.9,0.5,1.8,1,2.8,1.6
		c-7.4,12.8-14.7,25.5-22.1,38.4c7.4,12.8,14.7,25.5,22.1,38.2c-1,0.6-1.7,1.1-2.7,1.7c-0.5-0.9-1.1-1.7-1.6-2.6
		c-6.3-10.9-12.7-21.9-18.9-32.9c-1.2-2.1-2.4-2.9-4.8-2.9c-12.3,0.1-24.7,0.1-37,0.1C253.4,679.1,252.2,679.1,250.7,679.1z
		 M295.9,679.1c0.5-0.7,1.1-1.2,1-1.6c0-0.4-0.8-1-1.2-1c-0.4,0-1,0.7-1,1.1C294.7,678,295.3,678.4,295.9,679.1z"/>
	<path class="st0" d="M1031.1,225.8c0.9,0.5,1.7,0.9,2.7,1.5c-7.3,12.7-14.7,25.4-22.1,38.3c7.3,12.7,14.7,25.4,22.1,38.3
		c-0.9,0.6-1.7,1.1-2.7,1.7c-7.4-12.7-14.7-25.5-22.2-38.3c-14.7,0-29.4,0-44.2,0c0-1.1,0-2,0-3.2c1.2,0,2.3,0,3.4,0
		c12.4,0,24.9-0.1,37.3,0.1c2.7,0,4-0.9,5.3-3.1c6.1-10.9,12.5-21.7,18.8-32.6C1030.1,227.5,1030.6,226.6,1031.1,225.8z
		 M1009.8,264.1c-0.5,0.7-1.1,1.2-1,1.6c0,0.4,0.8,1,1.2,1c0.4,0,1-0.7,1-1.1C1011,265.1,1010.4,264.7,1009.8,264.1z"/>
	<path class="st0" d="M1033.9,578.6c-1,0.6-1.8,1.1-2.7,1.7c-7.3-12.7-14.7-25.4-22.2-38.3c-14.7,0-29.4,0-44.2,0c0-1.1,0-2,0-3.2
		c1.1,0,2.3,0,3.4,0c12.6,0,25.3-0.1,37.9,0.1c2.2,0,3.3-0.7,4.4-2.6c6.3-11.1,12.7-22.1,19.1-33.1c0.5-0.9,1.1-1.8,1.6-2.6
		c0.9,0.5,1.7,0.9,2.7,1.5c-7.3,12.7-14.6,25.4-22.1,38.3C1019.1,552.9,1026.4,565.6,1033.9,578.6z M1009.8,538.7
		c-0.5,0.7-1.1,1.2-1,1.6c0.1,0.4,0.8,1,1.2,1c0.4,0,1-0.7,1-1.1C1011,539.7,1010.4,539.3,1009.8,538.7z"/>
	<path class="st0" d="M832.5,776.5c0.9-0.6,1.7-1,2.7-1.6c0.5,0.8,1.1,1.7,1.6,2.6c6.4,11,12.8,22,19.1,33.1c1.1,2,2.4,2.7,4.6,2.7
		c12.5-0.1,25.1-0.1,37.6-0.1c1.1,0,2.3,0,3.5,0c0,1.1,0,2,0,3.2c-1.1,0-2.2,0-3.3,0c-12.6,0-25.3,0-37.9-0.1
		c-2.1,0-3.3,0.7-4.4,2.5c-6.2,11-12.6,21.9-18.9,32.9c-0.6,1-1.2,1.9-1.8,3c-0.9-0.5-1.6-0.9-2.8-1.6c7.3-12.7,14.6-25.4,22.1-38.4
		C847.3,802.1,839.9,789.3,832.5,776.5z M856.6,816.3c0.5-0.7,1.1-1.2,1-1.6c-0.1-0.4-0.8-1-1.2-1c-0.4,0-1,0.7-1,1.1
		C855.4,815.3,856,815.7,856.6,816.3z"/>
	<path class="st0" d="M854.6,402.9c-7.4-12.8-14.7-25.5-22.1-38.3c1-0.6,1.7-1,2.7-1.7c7.3,12.7,14.7,25.4,22.1,38.3
		c14.7,0,29.4,0,44.2,0c0,1.1,0,2,0,3.3c-1.2,0-2.4,0-3.6,0c-12.5,0-25.1,0-37.6,0c-2.1,0-3.3,0.7-4.4,2.5
		c-6.3,11.1-12.7,22.1-19.1,33.1c-0.5,0.9-1.1,1.8-1.6,2.6c-0.9-0.6-1.7-1-2.7-1.6C839.9,428.4,847.2,415.7,854.6,402.9z
		 M856.6,404.5c0.5-0.7,1.1-1.2,1-1.6c0-0.4-0.8-1-1.2-1c-0.4,0-1,0.7-1,1.1C855.4,403.4,856,403.8,856.6,404.5z"/>
	<path class="st0" d="M555.1,225.7c1,0.6,1.8,1.1,2.7,1.7c-7.3,12.7-14.7,25.5-22.1,38.3c7.4,12.8,14.7,25.5,22.1,38.3
		c-0.9,0.6-1.7,1-2.7,1.7c-0.6-0.9-1.1-1.8-1.7-2.8c-6.4-11-12.8-22-19.1-33.1c-1.1-1.9-2.3-2.5-4.4-2.5
		c-12.5,0.1-25.1,0.1-37.6,0.1c-1.1,0-2.3,0-3.6,0c0-1,0-1.8,0-2.8c0.1-0.1,0.2-0.3,0.4-0.3c1.1-0.1,2.3-0.1,3.4-0.1
		c12.3,0,24.7-0.1,37,0.1c2.6,0,3.9-0.9,5.1-3c6.2-10.9,12.5-21.7,18.8-32.6C553.9,227.6,554.4,226.7,555.1,225.7z M533.9,267.1
		c0.5-0.7,1.1-1.2,1-1.6c-0.1-0.4-0.8-1-1.2-1c-0.4,0-1,0.7-1,1.2C532.7,266.1,533.4,266.5,533.9,267.1z"/>
	<path class="st0" d="M663.6,264c0,1.1,0,2,0,3.2c-1.1,0-2.2,0-3.3,0c-12.6,0-25.3,0-37.9-0.1c-2.1,0-3.3,0.6-4.4,2.5
		c-6.2,11-12.6,21.9-18.9,32.9c-0.6,1-1.2,1.9-1.8,3c-0.9-0.5-1.7-1-2.7-1.6c7.4-12.8,14.7-25.5,22.1-38.3
		c-7.4-12.8-14.7-25.6-22.1-38.3c0.9-0.6,1.7-1,2.7-1.6c0.5,0.8,1.1,1.7,1.6,2.6c6.4,11,12.8,22,19.1,33.1c1.1,2,2.3,2.7,4.6,2.7
		C635,264,647.5,264,660,264C661.2,264,662.3,264,663.6,264z M616.9,265.5c0.7,0.5,1.1,1.2,1.5,1.1c0.4,0,0.8-0.6,1.3-1
		c-0.4-0.4-0.7-1.1-1.1-1.2C618.1,264.5,617.6,265,616.9,265.5z"/>
	<path class="st0" d="M726.7,267.3c0-1.3,0-2.1,0-3.3c1.2,0,2.3,0,3.4,0c12.6,0,25.3-0.1,37.9,0.1c2.2,0,3.3-0.7,4.4-2.5
		c6.3-11.1,12.7-22.1,19.1-33.1c0.5-0.9,1.1-1.8,1.6-2.7c0.9,0.5,1.6,0.9,2.7,1.6c-7.4,12.8-14.7,25.5-22.1,38.3
		c7.4,12.8,14.7,25.4,22.1,38.3c-0.9,0.6-1.7,1.1-2.7,1.8c-7.4-12.7-14.7-25.5-22.2-38.3C756.3,267.3,741.6,267.3,726.7,267.3z
		 M771.9,264.1c-0.5,0.6-1.2,1-1.2,1.5c0,0.4,0.6,1.1,1,1.1c0.4,0,1.1-0.6,1.2-1C773,265.3,772.4,264.8,771.9,264.1z"/>
	<path class="st0" d="M901.6,264c0,1.2,0,2,0,3c-0.4,0.1-0.8,0.2-1.1,0.2c-12.4,0-24.9,0.3-37.3-0.1c-4.5-0.1-6.8,1.4-8.8,5.2
		c-5.6,10.4-11.7,20.5-17.6,30.7c-0.5,0.8-1,1.6-1.5,2.5c-0.9-0.5-1.7-1-2.7-1.6c7.4-12.8,14.7-25.5,22.1-38.3
		c-7.4-12.8-14.7-25.5-22.1-38.3c0.9-0.6,1.7-1,2.6-1.7c0.5,0.8,1.1,1.7,1.6,2.5c6.3,10.9,12.7,21.8,18.9,32.9
		c1.3,2.3,2.8,3.1,5.4,3c12.3-0.1,24.7-0.1,37-0.1C899.2,264,900.3,264,901.6,264z M854.9,265.5c0.7,0.5,1.1,1.1,1.5,1.1
		c0.4,0,0.8-0.6,1.3-1c-0.4-0.4-0.7-1.1-1.1-1.2C856.2,264.5,855.7,265,854.9,265.5z"/>
	<path class="st0" d="M832.5,501.9c0.9-0.6,1.7-1,2.7-1.6c0.5,0.8,1.1,1.7,1.6,2.6c6.4,11,12.8,22,19.1,33.1c1.1,2,2.4,2.7,4.6,2.7
		c12.5-0.1,25.1-0.1,37.6-0.1c1.1,0,2.3,0,3.5,0c0,1.1,0,2,0,3.2c-1.1,0-2.2,0-3.3,0c-12.6,0-25.3,0-37.9-0.1
		c-2.1,0-3.3,0.6-4.4,2.5c-6.2,11-12.6,21.9-18.9,32.9c-0.6,1-1.2,1.9-1.8,3c-0.9-0.5-1.6-0.9-2.7-1.6c7.3-12.7,14.7-25.5,22.1-38.4
		C847.2,527.4,839.9,514.6,832.5,501.9z M856.6,541.7c0.5-0.7,1.1-1.2,1-1.6c-0.1-0.4-0.8-1-1.2-1c-0.4,0-1,0.7-1,1.2
		C855.4,540.7,856,541.1,856.6,541.7z"/>
	<path class="st0" d="M1031.1,774.9c1,0.6,1.7,1,2.7,1.6c-7.3,12.7-14.7,25.4-22.1,38.3c7.3,12.7,14.7,25.4,22.1,38.3
		c-1,0.6-1.8,1.1-2.7,1.7c-7.4-12.8-14.7-25.5-22.2-38.4c-14.7,0-29.4,0-44.2,0c0-1.1,0-2,0-3.2c1.2,0,2.3,0,3.5,0
		c12.4,0,24.9-0.1,37.3,0.1c2.5,0,3.9-0.7,5.1-2.9c6.1-10.9,12.5-21.7,18.7-32.6C1029.9,776.9,1030.5,776,1031.1,774.9z
		 M1011.5,814.9c-0.7-0.5-1.1-1.2-1.5-1.2c-0.4,0-0.8,0.6-1.2,1c0.4,0.4,0.7,1.1,1.1,1.1C1010.2,815.9,1010.7,815.4,1011.5,814.9z"
		/>
	<path class="st0" d="M594.5,501.9c1-0.6,1.8-1,2.7-1.6c0.6,1,1.2,1.9,1.7,2.9c6.3,10.9,12.7,21.9,18.9,32.9c1.1,2,2.4,2.7,4.7,2.6
		c12.5-0.1,25.1-0.1,37.6-0.1c1.1,0,2.2,0,3.5,0c0,1.1,0,2,0,3.2c-14.8,0-29.4,0-44.2,0c-7.4,12.9-14.8,25.6-22.2,38.3
		c-0.9-0.5-1.7-1-2.8-1.6c7.3-12.7,14.7-25.4,22.1-38.4C609.3,527.6,601.9,514.8,594.5,501.9z M618.6,538.7c-0.6,0.6-1.2,1-1.2,1.5
		c0,0.4,0.6,1.1,1,1.1c0.4,0,1.1-0.6,1.2-1C619.6,539.9,619,539.4,618.6,538.7z"/>
	<path class="st0" d="M488.7,541.8c0-1.1,0-2,0-3.2c1.2,0,2.3,0,3.5,0c12.5,0,25.1-0.1,37.6,0.1c2.2,0,3.5-0.7,4.7-2.6
		c6.2-11,12.6-21.9,18.9-32.9c0.5-0.9,1.1-1.8,1.7-2.8c0.9,0.5,1.7,0.9,2.8,1.5c-7.3,12.7-14.7,25.4-22.1,38.3
		c7.3,12.7,14.7,25.5,22.1,38.3c-1,0.6-1.8,1.1-2.7,1.7c-7.4-12.8-14.7-25.5-22.2-38.4C518.1,541.8,503.5,541.8,488.7,541.8z
		 M533.9,541.7c0.5-0.7,1.1-1.2,1-1.6c-0.1-0.4-0.8-1-1.2-1c-0.4,0-1,0.7-1,1.2C532.7,540.7,533.3,541.1,533.9,541.7z"/>
	<path class="st0" d="M793.1,500.3c1,0.6,1.8,1.1,2.7,1.6c-7.3,12.7-14.7,25.4-22.1,38.3c7.4,12.8,14.7,25.5,22.1,38.3
		c-1,0.6-1.8,1.1-2.8,1.6c-3.1-5.3-6.1-10.5-9.1-15.7c-3.9-6.8-7.9-13.6-11.8-20.5c-0.9-1.7-2-2.3-3.9-2.3c-12.6,0.1-25.3,0-37.9,0
		c-1.1,0-2.3,0-3.6,0c0-1.1,0-2,0-3.2c1.2,0,2.3,0,3.4,0c12.5,0,25.1-0.1,37.6,0.1c2.3,0,3.5-0.7,4.6-2.7
		c6.2-11,12.6-21.9,18.9-32.9C791.9,502.3,792.5,501.4,793.1,500.3z M772,538.7c-0.5,0.6-1.2,1-1.2,1.5c0,0.4,0.6,1.1,1,1.1
		c0.4,0,1.1-0.6,1.2-1C773,539.9,772.4,539.4,772,538.7z"/>
	<path class="st0" d="M381.4,541.8c-7.4,12.9-14.8,25.6-22.2,38.3c-0.9-0.5-1.7-1-2.8-1.6c7.3-12.7,14.7-25.4,22.1-38.4
		c-7.3-12.7-14.6-25.4-22.1-38.2c0.9-0.6,1.7-1.1,2.7-1.7c0.5,0.9,1.1,1.8,1.6,2.6c6.4,11,12.8,22,19.1,33.1c1.1,2,2.4,2.6,4.7,2.6
		c12.5-0.1,25.1-0.1,37.6-0.1c1.1,0,2.2,0,3.5,0c0,1.2,0,2,0,3.2C410.8,541.8,396.1,541.8,381.4,541.8z M382,540.1
		c-0.7-0.5-1.2-1.1-1.6-1c-0.4,0.1-0.8,0.7-1.1,1.2c0.4,0.4,0.8,1,1.3,1C380.9,541.3,381.3,540.7,382,540.1z"/>
	<path class="st0" d="M317,500.3c1,0.6,1.8,1.1,2.7,1.7c-7.4,12.8-14.7,25.5-22.1,38.3c7.4,12.8,14.7,25.6,22.1,38.3
		c-1,0.6-1.7,1.1-2.7,1.7c-0.6-0.9-1.2-1.9-1.7-2.8c-6-10.4-12-20.8-18-31.2c-3.1-5.3-1.2-4.3-7.6-4.3c-11.8-0.1-23.6,0-35.4,0
		c-1.1,0-2.3,0-3.6,0c0-1,0-1.9,0-3c0.4-0.1,0.9-0.2,1.4-0.2c11.9,0,23.8,0,35.7,0c2.3,0,4.9,0.6,6.7-0.4c1.7-1,2.6-3.6,3.7-5.5
		c5.7-9.9,11.4-19.7,17.1-29.6C315.9,502.2,316.4,501.3,317,500.3z M297.3,540.3c-0.7-0.6-1.1-1.2-1.5-1.2c-0.4,0-0.8,0.6-1.3,1
		c0.4,0.4,0.7,1.1,1.1,1.1C296.1,541.3,296.6,540.8,297.3,540.3z"/>
	<path class="st0" d="M118.4,501.9c1.1-0.6,1.9-1.1,2.8-1.6c1.9,3.3,3.8,6.5,5.6,9.7c5,8.7,10.1,17.4,15,26.1c1,1.9,2.2,2.6,4.4,2.5
		c12.5-0.1,25.1-0.1,37.6-0.1c1.1,0,2.3,0,3.6,0c0.1,1,0.1,1.9,0.2,3.1c-14.7,0-29.4,0-44.2,0c-7.4,12.9-14.8,25.6-22.2,38.4
		c-0.9-0.5-1.7-1-2.8-1.6c7.3-12.7,14.7-25.5,22.1-38.3C133.2,527.5,125.8,514.8,118.4,501.9z M142.5,538.7c-0.6,0.6-1.2,1-1.2,1.5
		c0,0.4,0.6,1.1,1,1.1c0.4,0,1.1-0.6,1.2-1C143.5,539.9,143,539.4,142.5,538.7z"/>
	<path class="st0" d="M59.6,540.2c7.4,12.8,14.7,25.5,22.1,38.3c-0.9,0.6-1.7,1-2.7,1.7c-0.5-0.9-1.1-1.8-1.7-2.8
		c-6.4-11-12.8-22-19.1-33.1c-1.1-1.9-2.3-2.5-4.4-2.5c-12.5,0.1-25.1,0.1-37.6,0.1c-1.1,0-2.3,0-3.6,0c0-1.1,0-2,0-3.2
		c1.2,0,2.3,0,3.5,0c12.5,0,25.1-0.1,37.6,0.1c2.3,0,3.5-0.8,4.6-2.7c6.2-11,12.6-21.9,18.9-32.9c0.5-0.9,1.1-1.8,1.7-2.8
		c0.9,0.5,1.7,1,2.7,1.6C74.4,514.7,67,527.4,59.6,540.2z M57.8,538.7c-0.5,0.6-1.2,1.1-1.2,1.5c0,0.4,0.6,1.1,1,1.1
		c0.4,0,1.1-0.6,1.2-1C58.9,539.9,58.3,539.4,57.8,538.7z"/>
	<path class="st0" d="M793.1,774.9c0.9,0.5,1.7,1,2.7,1.6c-7.3,12.7-14.7,25.4-22.1,38.3c7.3,12.7,14.7,25.4,22.1,38.3
		c-0.9,0.6-1.7,1.1-2.7,1.7c-7.4-12.7-14.7-25.5-22.2-38.3c-14.7,0-29.4,0-44.2,0c0-1.1,0-2,0-3.2c1.2,0,2.3,0,3.4,0
		c12.4,0,24.9-0.1,37.3,0.1c2.5,0,3.9-0.7,5.1-2.9c6.2-11,12.6-21.9,18.9-32.9C792,776.7,792.6,775.8,793.1,774.9z M773.4,814.9
		c-0.7-0.6-1.1-1.2-1.5-1.2c-0.4,0-0.8,0.6-1.2,1c0.4,0.4,0.7,1.1,1.1,1.1C772.2,815.9,772.7,815.4,773.4,814.9z"/>
	<path class="st0" d="M557.8,776.5c-7.4,12.9-14.7,25.6-22.1,38.3c7.4,12.8,14.7,25.5,22.1,38.3c-0.9,0.6-1.7,1-2.7,1.7
		c-0.5-0.9-1.1-1.8-1.7-2.8c-6.4-11-12.8-22-19.1-33.1c-1.1-1.9-2.3-2.5-4.4-2.5c-12.5,0.1-25.1,0.1-37.6,0.1c-1.1,0-2.3,0-3.6,0
		c0-1.1,0-2,0-3.2c1.2,0,2.3,0,3.5,0c12.5,0,25.1-0.1,37.6,0.1c2.3,0,3.5-0.8,4.6-2.7c6.2-11,12.6-21.9,18.9-32.9
		c0.5-0.9,1.1-1.8,1.7-2.8C555.9,775.5,556.8,776,557.8,776.5z M533.7,813.3c-0.5,0.7-1.1,1.2-1,1.6c0.1,0.4,0.8,1,1.2,1
		c0.4,0,1-0.7,1-1.1C534.9,814.3,534.3,813.9,533.7,813.3z"/>
	<path class="st0" d="M79,225.8c0.9,0.5,1.7,0.9,2.7,1.5c-7.3,12.7-14.7,25.4-22.1,38.3c7.3,12.7,14.7,25.4,22.1,38.3
		c-0.9,0.6-1.7,1.1-2.7,1.7c-7.4-12.7-14.7-25.5-22.2-38.3c-14.7,0-29.4,0-44.2,0c0-1.1,0-2,0-3.2c1.2,0,2.3,0,3.4,0
		c12.5,0,25.1-0.1,37.6,0.1c2.5,0,3.7-0.8,4.8-2.9c6.2-11,12.6-21.9,18.9-32.9C77.9,227.5,78.4,226.6,79,225.8z M59.3,265.7
		c-0.7-0.6-1.1-1.2-1.5-1.2c-0.4,0-0.8,0.6-1.2,1c0.4,0.4,0.7,1.1,1.1,1.1C58.1,266.7,58.6,266.2,59.3,265.7z"/>
	<path class="st0" d="M121.1,305.6c-1-0.6-1.7-1-2.7-1.6c7.3-12.7,14.6-25.4,22.1-38.3c-7.3-12.7-14.7-25.5-22.1-38.3
		c1-0.6,1.7-1,2.7-1.6c0.5,0.9,1.1,1.7,1.6,2.6c6.4,11,12.8,22,19.1,33.1c1.1,2,2.4,2.7,4.6,2.7c12.5-0.1,25.1-0.1,37.6-0.1
		c1.1,0,2.3,0,3.5,0c0,1.1,0,2,0,3.2c-1.1,0-2.3,0-3.4,0c-12.6,0-25.3,0.1-37.9-0.1c-2.1,0-3.3,0.7-4.4,2.5
		c-6.2,11-12.6,21.9-18.9,32.9C122.3,303.5,121.7,304.5,121.1,305.6z M142.5,264.1c-0.6,0.6-1.2,1-1.2,1.4c0,0.4,0.6,1.1,1,1.1
		c0.4,0,1.1-0.6,1.2-1C143.5,265.3,142.9,264.8,142.5,264.1z"/>
	<path class="st0" d="M59.6,814.8c7.4,12.8,14.7,25.6,22.1,38.3c-1,0.6-1.7,1.1-2.7,1.7c-0.6-0.9-1.2-1.9-1.7-2.9
		c-6.3-10.9-12.6-21.7-18.8-32.6c-1.2-2.1-2.5-3-5.1-3c-12.4,0.1-24.9,0.1-37.3,0.1c-1.1,0-2.3,0-3.5,0c0-1,0-1.9,0-3
		c0.6-0.1,1.1-0.2,1.7-0.2c12.4,0,24.9,0,37.3,0c6.2,0,4.5,0.9,7.6-4.4c6.1-10.5,12.1-21,18.2-31.5c0.5-0.8,1-1.6,1.5-2.5
		c0.9,0.5,1.7,1,2.7,1.6C74.3,789.3,67,802.1,59.6,814.8z M57.8,813.3c-0.5,0.6-1.2,1-1.2,1.5c0,0.4,0.6,1.1,1,1.1
		c0.4,0,1.1-0.6,1.2-1C58.9,814.5,58.3,814,57.8,813.3z"/>
	<path class="st0" d="M317,225.8c0.9,0.5,1.7,0.9,2.7,1.5c-7.3,12.7-14.6,25.4-22.1,38.3c7.3,12.7,14.7,25.4,22.1,38.3
		c-0.9,0.6-1.7,1.1-2.7,1.7c-7.4-12.7-14.7-25.5-22.2-38.3c-14.7,0-29.4,0-44.2,0c0-1.1,0-2,0-3.2c1.2,0,2.3,0,3.4,0
		c12.5,0,25.1-0.1,37.6,0.1c2.4,0,3.7-0.8,4.8-2.9c6.2-11,12.6-21.9,18.9-32.9C315.9,227.5,316.5,226.6,317,225.8z M295.9,267.1
		c0.5-0.7,1.1-1.2,1-1.6c-0.1-0.4-0.8-1-1.2-1c-0.4,0-1,0.7-1,1.2C294.7,266.1,295.3,266.5,295.9,267.1z"/>
	<path class="st0" d="M356.4,364.6c0.9-0.6,1.7-1,2.7-1.7c7.3,12.7,14.7,25.4,22.1,38.3c14.7,0,29.4,0,44.2,0c0,1.1,0,2,0,3.3
		c-1.2,0-2.4,0-3.6,0c-12.4,0-24.9,0.1-37.3-0.1c-2.4,0-3.7,0.7-4.9,2.8c-6.2,11-12.6,21.9-18.9,32.9c-0.5,0.9-1.1,1.8-1.6,2.7
		c-0.9-0.6-1.7-1-2.7-1.6c7.3-12.7,14.7-25.4,22.1-38.3C371.1,390.1,363.8,377.4,356.4,364.6z M380.3,404.5c0.6-0.6,1.2-1.1,1.2-1.5
		c0-0.4-0.6-1.1-1-1.1c-0.4,0-1.1,0.6-1.2,1C379.2,403.2,379.8,403.8,380.3,404.5z"/>
	<path class="st0" d="M317,774.9c1,0.6,1.7,1,2.7,1.6c-7.3,12.7-14.7,25.4-22.1,38.3c7.4,12.8,14.7,25.5,22.1,38.3
		c-1,0.6-1.8,1.1-2.7,1.7c-7.4-12.8-14.7-25.5-22.2-38.4c-14.7,0-29.4,0-44.2,0c0-1.1,0-2,0-3.2c1.2,0,2.4,0,3.5,0
		c12.5,0,25.1-0.1,37.6,0.1c2.3,0,3.5-0.7,4.6-2.7c6.2-11,12.6-21.9,18.9-32.9C315.8,776.9,316.4,776,317,774.9z M295.7,816.3
		c0.6-0.6,1.2-1,1.2-1.4c0-0.4-0.6-1.1-1-1.2c-0.4,0-1.1,0.6-1.2,1C294.6,815.1,295.2,815.6,295.7,816.3z"/>
	<path class="st0" d="M425.5,813.2c0,1.2,0,2,0,3.2c-14.8,0-29.4,0-44.2,0c-7.4,12.9-14.8,25.6-22.2,38.3c-0.9-0.5-1.7-1-2.8-1.6
		c7.3-12.7,14.7-25.4,22.1-38.4c-7.3-12.7-14.6-25.4-22.1-38.2c0.9-0.6,1.7-1.1,2.7-1.7c0.5,0.9,1.1,1.7,1.6,2.6
		c6.4,11,12.8,22,19.1,33.1c1.1,2,2.4,2.7,4.7,2.6c12.5-0.1,25.1-0.1,37.6-0.1C423.2,813.2,424.3,813.2,425.5,813.2z M382,814.9
		c-0.7-0.6-1.1-1.2-1.5-1.2c-0.4,0-0.8,0.6-1.3,1c0.4,0.4,0.7,1.1,1.1,1.1C380.7,815.9,381.2,815.4,382,814.9z"/>
	<path class="st0" d="M594.5,913.8c1-0.6,1.8-1.1,2.7-1.7c7.4,12.7,14.7,25.5,22.2,38.4c14.7,0,29.4,0,44.2,0c0,1.1,0,2,0,3.3
		c-1.3,0-2.5,0-3.7,0c-12.3,0-24.7,0.1-37-0.1c-2.5,0-3.9,0.7-5.1,2.9c-6.2,11-12.6,21.9-18.9,32.9c-0.5,0.8-1,1.6-1.5,2.6
		c-0.9-0.5-1.7-1-2.7-1.6c7.4-12.8,14.7-25.5,22.1-38.3C609.2,939.3,601.9,926.7,594.5,913.8z M620,952.2c-0.7-0.5-1.1-1.2-1.5-1.2
		c-0.4,0-0.8,0.6-1.3,1c0.4,0.4,0.7,1.1,1.1,1.2C618.8,953.3,619.3,952.7,620,952.2z"/>
	<path class="st0" d="M187.5,950.5c0,1.1,0,2,0,3.2c-1.3,0-2.5,0-3.8,0c-12.4,0-24.9,0.1-37.3-0.1c-2.3,0-3.5,0.7-4.7,2.6
		c-6.3,11.1-12.7,22.1-19.1,33.1c-0.5,0.8-1,1.6-1.5,2.5c-0.9-0.5-1.7-1-2.7-1.6c7.3-12.7,14.6-25.3,22.1-38.2
		c-7.3-12.7-14.6-25.4-22.1-38.3c0.9-0.6,1.7-1.1,2.7-1.7c7.4,12.7,14.7,25.5,22.2,38.4C158,950.5,172.7,950.5,187.5,950.5z
		 M143.9,952c-0.7-0.5-1.2-1-1.6-1c-0.4,0.1-0.8,0.7-1.1,1.1c0.4,0.4,0.8,1,1.2,1C142.9,953.2,143.3,952.6,143.9,952z"/>
	<path class="st0" d="M425.5,264c0,1.2,0,2.1,0,3.2c-14.8,0-29.5,0-44.2,0c-7.4,12.9-14.8,25.6-22.1,38.3c-0.9-0.5-1.7-1-2.8-1.6
		c7.3-12.7,14.7-25.4,22.1-38.4c-7.3-12.7-14.7-25.4-22.1-38.3c0.9-0.6,1.7-1.1,2.7-1.7c0.5,0.9,1.1,1.8,1.6,2.6
		c6.3,10.9,12.7,21.8,18.9,32.9c1.2,2.2,2.7,2.9,5.1,2.9c12.4-0.1,24.9-0.1,37.3-0.1C423.2,264,424.3,264,425.5,264z M380.5,264.1
		c-0.5,0.6-1.2,1-1.2,1.5c0,0.4,0.6,1.1,1,1.1c0.4,0,1.1-0.6,1.2-1C381.6,265.3,381,264.8,380.5,264.1z"/>
	<path class="st0" d="M142.5,813c1.4,0.1,2.9,0.2,4.3,0.2c12.3,0,24.7,0,37,0c1.1,0,2.3,0,3.5,0c0,1.1,0,1.9,0,3
		c-0.3,0-0.7,0.1-1.1,0.1c-12.1,0-24.3,0-36.4,0c-2.2,0-4.8-0.6-6.4,0.4c-1.7,1.1-2.6,3.6-3.7,5.6c-5.8,10-11.6,20.1-17.4,30.1
		c-0.4,0.7-0.9,1.4-1.4,2.2c-0.9-0.5-1.7-1-2.7-1.6c7.4-12.8,14.7-25.5,22.1-38.3c-7.4-12.8-14.7-25.6-22.1-38.3
		c0.9-0.6,1.7-1,2.6-1.6c0.3,0.5,0.7,0.9,1,1.4c6.6,11.4,13.2,22.8,19.7,34.2C142.2,811.3,142.3,812.2,142.5,813
		c-0.3,0.5-0.9,0.8-1.2,1.3c-0.2,0.3-0.1,1.1,0.2,1.3c0.3,0.3,1,0.4,1.3,0.2c0.3-0.2,0.6-0.8,0.5-1.2
		C143.3,814,142.9,813.5,142.5,813z"/>
	<path class="st0" d="M618.6,813c1.4,0.1,2.9,0.2,4.3,0.2c12.3,0,24.7,0,37,0c1.1,0,2.3,0,3.5,0c0,1.1,0,1.9,0,3
		c-0.3,0-0.7,0.1-1.1,0.1c-12.1,0-24.3,0-36.4,0c-2.2,0-4.8-0.6-6.4,0.4c-1.7,1.1-2.6,3.6-3.7,5.6c-5.8,10-11.6,20.1-17.4,30.1
		c-0.4,0.7-0.9,1.4-1.4,2.2c-0.9-0.5-1.7-1-2.7-1.6c7.4-12.8,14.7-25.5,22.1-38.3c-7.4-12.8-14.7-25.6-22.1-38.3
		c0.9-0.6,1.7-1,2.6-1.6c0.3,0.5,0.7,0.9,1,1.4c6.6,11.4,13.2,22.8,19.7,34.2C618.2,811.3,618.4,812.2,618.6,813
		c-0.3,0.5-0.9,0.8-1.2,1.3c-0.2,0.3-0.1,1.1,0.2,1.3c0.3,0.3,1,0.4,1.3,0.2c0.3-0.2,0.6-0.8,0.5-1.2
		C619.4,814,618.9,813.5,618.6,813z"/>
	<path class="st0" d="M131.7,1022.4c0-1.2,0-2,0-3.2c1.4,0,2.6,0,3.8,0c12.4,0,24.9-0.1,37.3,0.1c2.3,0,3.5-0.8,4.6-2.7
		c6.2-11,12.6-21.9,18.9-32.9c0.5-0.9,1.1-1.8,1.7-2.7c0.9,0.6,1.7,1,2.7,1.6c-7.3,12.7-14.6,25.4-22,38.2
		c7.3,12.7,14.7,25.5,22,38.2c-1,0.6-1.7,1.1-2.6,1.7c-0.6-1-1.2-1.9-1.7-2.9c-6-10.4-12-20.8-18-31.2c-3-5.1-1.4-4.2-7.1-4.2
		c-12-0.1-24.1,0-36.1,0C134,1022.4,132.9,1022.4,131.7,1022.4z M176.8,1022.3c0.5-0.7,1-1.2,1-1.6c-0.1-0.4-0.8-1-1.1-1
		c-0.4,0-1,0.7-1,1.1C175.7,1021.2,176.3,1021.7,176.8,1022.3z"/>
	<path class="st0" d="M436,431.8c0.9,0.5,1.6,1,2.7,1.6c-7.3,12.7-14.7,25.4-22.1,38.2c7.3,12.7,14.6,25.3,22,38.2
		c-0.9,0.6-1.7,1.1-2.7,1.8c-0.9-1.5-1.7-2.9-2.5-4.3c-6-10.4-12.1-20.8-18-31.3c-1.2-2.1-2.4-2.9-4.8-2.9
		c-12.5,0.1-25.1,0.1-37.6,0.1c-1.1,0-2.2,0-3.4,0c0-1.1,0-1.9,0-2.8c0.3-0.1,0.5-0.3,0.8-0.3c2.7,0,5.4-0.1,8.1-0.1
		c10.4,0,20.7-0.1,31.1,0.1c3.1,0.1,4.8-0.8,6.3-3.6c6-10.8,12.2-21.4,18.4-32.1C434.9,433.6,435.5,432.7,436,431.8z M414.9,470.1
		c-0.5,0.6-1.2,1-1.2,1.4c0,0.4,0.6,1.1,1,1.1c0.4,0,1.1-0.6,1.2-1C415.9,471.2,415.4,470.8,414.9,470.1z"/>
	<path class="st0" d="M475.5,433.3c1-0.6,1.8-1.1,2.7-1.7c0.9,1.6,1.8,3.1,2.7,4.6c6,10.4,12.1,20.8,18,31.3
		c1.1,1.9,2.3,2.5,4.4,2.5c12.4-0.1,24.9,0,37.3,0c1.2,0,2.5,0,3.9,0c0.1,1.1,0.1,1.9,0.2,3c-0.6,0.1-1.1,0.2-1.6,0.2
		c-13.1,0-26.1,0.1-39.2-0.1c-2.6,0-4.1,0.8-5.3,3.1c-6,10.7-12.3,21.4-18.4,32.1c-0.6,1.1-1.3,2.1-1.9,3.2
		c-0.9-0.6-1.6-1.1-2.7-1.7c7.3-12.7,14.6-25.4,22-38.2C490.2,458.8,482.9,446.2,475.5,433.3z M499.5,473.1c0.5-0.7,1-1.2,1-1.6
		c-0.1-0.4-0.8-1-1.1-1c-0.4,0-1,0.7-1,1.1C498.3,472,499,472.4,499.5,473.1z"/>
	<path class="st0" d="M654.7,471.6c7.4,12.9,14.7,25.5,22,38.2c-0.9,0.6-1.7,1.1-2.6,1.7c-0.6-0.9-1.2-1.9-1.7-2.8
		c-6.3-10.9-12.7-21.9-18.9-32.9c-1.1-2-2.4-2.7-4.6-2.7c-12.5,0.1-25.1,0.1-37.6,0.1c-1.1,0-2.2,0-3.5,0c0-1.1,0-2,0-3.2
		c1.3,0,2.5,0,3.8,0c12.4,0,24.9-0.1,37.3,0.1c2.3,0,3.5-0.7,4.6-2.7c6.3-11.1,12.7-22.1,19.1-33.1c0.5-0.8,1-1.6,1.5-2.5
		c0.9,0.5,1.7,1,2.7,1.6C669.5,446.1,662.2,458.7,654.7,471.6z M652.9,470.1c-0.5,0.6-1.2,1-1.2,1.4c0,0.4,0.6,1.1,1,1.1
		c0.4,0,1.1-0.6,1.2-1C654,471.2,653.4,470.8,652.9,470.1z"/>
	<path class="st0" d="M912.1,431.7c0.9,0.6,1.7,1.1,2.7,1.7c-7.3,12.6-14.6,25.3-22,38.2c7.3,12.6,14.6,25.4,22,38.2
		c-0.9,0.6-1.7,1.1-2.7,1.8c-3.2-5.5-6.3-10.9-9.4-16.2c-3.7-6.5-7.6-12.9-11.1-19.4c-1.2-2.1-2.6-2.8-4.9-2.7
		c-12.4,0.1-24.9,0.1-37.3,0.1c-1.1,0-2.3,0-3.6,0c0-1,0-1.9,0-3.2c1.2,0,2.4,0,3.6,0c12.4,0,24.9-0.1,37.3,0.1
		c2.4,0,3.7-0.8,4.9-2.9c6.3-11.1,12.7-22.1,19.1-33.1C911.1,433.4,911.5,432.7,912.1,431.7z M892.4,471.5c-0.7-0.5-1.2-1-1.6-1
		c-0.4,0.1-0.7,0.7-1.1,1.1c0.4,0.4,0.8,1,1.2,1C891.4,472.6,891.8,472,892.4,471.5z"/>
	<path class="st0" d="M1020.6,470c0,1.1,0,1.9,0,2.9c-0.4,0.1-0.9,0.2-1.4,0.2c-9.3,0-18.7,0-28,0c-4.1,0-8.3,0.1-12.4,0
		c-1.8-0.1-2.8,0.6-3.7,2.1c-6.5,11.3-13,22.6-19.6,33.9c-0.4,0.7-0.9,1.4-1.3,2.2c-0.9-0.6-1.7-1.1-2.7-1.7
		c7.3-12.7,14.6-25.4,22-38.2c-7.3-12.7-14.7-25.5-22-38.2c0.9-0.6,1.7-1.1,2.7-1.7c0.5,0.9,1.1,1.7,1.6,2.6
		c6.4,11,12.8,22,19.1,33.1c1.1,2,2.4,2.7,4.7,2.6c12.4-0.1,24.9-0.1,37.3-0.1C1018.1,470,1019.3,470,1020.6,470z M975.6,470
		c-0.5,0.6-1.2,1-1.2,1.4c0,0.4,0.6,1.1,1,1.1c0.4,0,1.1-0.6,1.1-1C976.6,471.2,976.1,470.7,975.6,470z"/>
	<path class="st0" d="M954.2,1060.7c-0.9-0.6-1.7-1.1-2.6-1.7c7.3-12.6,14.6-25.3,22-38.2c-7.3-12.7-14.6-25.4-22-38.2
		c0.9-0.6,1.8-1.1,2.7-1.7c1.8,3,3.5,6,5.2,8.9c5,8.7,10.2,17.3,15,26.2c1.4,2.6,3.1,3.3,5.9,3.3c12.1-0.1,24.3-0.1,36.4-0.1
		c1.2,0,2.5,0,3.8,0c0,1.1,0,2,0,3.2c-1.2,0-2.3,0-3.4,0c-12.4,0-24.9,0.1-37.3-0.1c-2.7,0-4,0.9-5.3,3.1
		c-6,10.7-12.3,21.4-18.4,32.1C955.5,1058.6,954.9,1059.6,954.2,1060.7z M977,1020.7c-0.7-0.5-1.2-1-1.6-1c-0.4,0.1-0.7,0.7-1.1,1.1
		c0.4,0.4,0.8,1,1.2,1C976,1021.8,976.4,1021.2,977,1020.7z"/>
	<path class="st0" d="M782.6,1019.2c0,1.2,0,2,0,3c-0.5,0.1-1,0.2-1.5,0.2c-12.5,0-25.1,0-37.6,0c-0.7,0-1.5,0.1-2.2,0
		c-2.1-0.3-3.4,0.5-4.4,2.5c-4.4,7.9-9,15.6-13.5,23.5c-2.4,4.1-4.8,8.2-7.2,12.4c-0.9-0.6-1.7-1-2.7-1.7
		c7.3-12.7,14.6-25.4,22-38.2c-7.3-12.7-14.6-25.4-22-38.1c0.9-0.6,1.7-1.1,2.6-1.7c0.6,0.9,1.1,1.8,1.6,2.7
		c6.4,11,12.8,22.1,19.1,33.1c1.1,1.9,2.2,2.6,4.4,2.6c12.4-0.1,24.9-0.1,37.3-0.1C779.8,1019.2,781.1,1019.2,782.6,1019.2z
		 M735.9,1020.7c0.6,0.5,1.1,1.1,1.5,1.1c0.4,0,0.8-0.6,1.2-1c-0.4-0.4-0.7-1.1-1.1-1.1C737.1,1019.7,736.6,1020.2,735.9,1020.7z"/>
	<path class="st0" d="M607.8,1022.4c0-1.2,0-2,0-3.2c1.4,0,2.6,0,3.8,0c12.2,0,24.5-0.1,36.7,0.1c2.8,0,4.2-0.9,5.5-3.3
		c6.1-10.8,12.4-21.6,18.6-32.3c0.5-0.9,1.1-1.8,1.6-2.7c0.9,0.5,1.6,0.9,2.6,1.5c-0.5,0.9-1,1.9-1.5,2.9
		c-6.2,10.8-12.3,21.6-18.7,32.3c-1.5,2.4-1.3,4.1,0.1,6.4c6.3,10.7,12.5,21.5,18.7,32.3c0.5,0.8,0.9,1.6,1.5,2.6
		c-0.8,0.6-1.6,1.1-2.6,1.8c-0.7-1.1-1.3-2.1-1.9-3.2c-6.2-10.7-12.4-21.3-18.4-32.1c-1.3-2.3-2.6-3.2-5.3-3.1
		c-12.4,0.2-24.9,0.1-37.3,0.1C610,1022.4,608.9,1022.4,607.8,1022.4z M654.4,1020.9c-0.6-0.5-1-1.2-1.5-1.2c-0.4,0-0.8,0.6-1.2,1
		c0.4,0.4,0.7,1.1,1.1,1.1C653.2,1021.9,653.7,1021.3,654.4,1020.9z"/>
	<path class="st0" d="M478.2,980.9c5.1,8.9,10.1,17.5,15.1,26.1c1.8,3.1,3.8,6.2,5.4,9.4c1.1,2.1,2.4,2.9,4.8,2.9
		c12.3-0.1,24.7-0.1,37-0.1c1.2,0,2.5,0,3.9,0c0.1,1,0.1,1.9,0.2,3c-0.6,0.1-1.1,0.2-1.6,0.2c-10.6,0-21.1,0-31.7,0
		c-2.4,0-4.8,0.2-7.1,0c-2.8-0.3-4.4,0.7-5.9,3.3c-5.8,10.4-11.8,20.7-17.8,31c-0.8,1.3-1.6,2.7-2.4,4.1c-0.9-0.5-1.6-1-2.7-1.7
		c7.3-12.7,14.6-25.4,22-38.2c-7.4-12.8-14.7-25.5-22-38.2C476.5,982,477.3,981.5,478.2,980.9z M499.4,1022.3c0.5-0.6,1.2-1,1.2-1.4
		c0-0.4-0.6-1.1-1-1.1c-0.4,0-1.1,0.6-1.1,1C498.3,1021.1,498.9,1021.6,499.4,1022.3z"/>
	<path class="st0" d="M259.5,1020.8c-7.4-12.7-14.6-25.4-22-38.2c0.9-0.6,1.7-1.1,2.7-1.8c0.9,1.6,1.8,3.1,2.7,4.6
		c6,10.4,12.1,20.8,18,31.3c1.1,1.9,2.3,2.5,4.4,2.5c12.4-0.1,24.9,0,37.3,0c1.2,0,2.5,0,3.9,0c0.1,1.1,0.1,1.9,0.2,3
		c-0.6,0.1-1.1,0.2-1.6,0.2c-13.1,0-26.1,0.1-39.2-0.1c-2.6,0-4.1,0.8-5.3,3.1c-5.9,10.5-12,20.9-18,31.3c-0.8,1.3-1.6,2.7-2.4,4
		c-0.9-0.6-1.7-1.1-2.7-1.7C244.8,1046.3,252.1,1033.6,259.5,1020.8z M262.9,1020.7c-0.7-0.5-1.2-1-1.6-1c-0.4,0.1-0.7,0.7-1.1,1.1
		c0.4,0.4,0.8,1,1.2,1C261.9,1021.8,262.3,1021.2,262.9,1020.7z"/>
	<path class="st0" d="M131.7,198.6c0-1.2,0-2,0-3.2c1.4,0,2.6,0,3.8,0c12.2,0,24.5-0.1,36.7,0.1c2.8,0,4.2-0.9,5.5-3.3
		c6.1-10.9,12.5-21.7,18.8-32.6c0.5-0.8,1-1.6,1.5-2.4c0.9,0.5,1.6,0.9,2.6,1.5c-0.5,0.9-1,1.9-1.5,2.9
		c-6.3,10.9-12.5,21.8-18.9,32.5c-1.3,2.2-1.2,3.8,0.1,5.9c6.3,10.7,12.5,21.5,18.7,32.3c0.5,0.9,1,1.8,1.6,2.9
		c-0.8,0.6-1.6,1.1-2.6,1.8c-0.6-1-1.2-1.9-1.8-2.9c-6.2-10.7-12.4-21.3-18.4-32.1c-1.4-2.4-2.9-3.5-5.8-3.4
		c-12.3,0.2-24.7,0.1-37,0.1C134,198.6,132.8,198.6,131.7,198.6z M178.3,197.1c-0.6-0.5-1-1.2-1.5-1.2c-0.4,0-0.8,0.6-1.2,1
		c0.4,0.4,0.7,1.1,1.1,1.1C177.1,198.1,177.6,197.5,178.3,197.1z"/>
	<path class="st0" d="M259.5,197c-7.5-12.9-14.7-25.6-22-38.2c1-0.6,1.8-1.1,2.7-1.6c0.5,0.9,1.1,1.7,1.6,2.6
		c6.3,10.9,12.7,21.9,18.9,32.9c1.2,2.1,2.4,2.9,4.8,2.9c12.3-0.1,24.7-0.1,37-0.1c1.2,0,2.5,0,3.9,0c0.1,1,0.1,1.9,0.2,3
		c-0.6,0.1-1.1,0.2-1.6,0.2c-12.1,0-24.3,0-36.4,0c-0.8,0-1.7,0.1-2.5,0c-2.8-0.4-4.4,0.7-5.9,3.2c-5.7,10.3-11.7,20.5-17.6,30.7
		c-0.8,1.4-1.7,2.9-2.5,4.4c-0.9-0.6-1.6-1-2.7-1.7C244.8,222.5,252.1,209.8,259.5,197z M261.3,198.5c0.5-0.6,1.2-1,1.2-1.4
		c0-0.4-0.6-1.1-1-1.1c-0.4,0-1.1,0.6-1.1,1C260.3,197.3,260.8,197.8,261.3,198.5z"/>
	<path class="st0" d="M676.8,235.2c-0.9,0.6-1.6,1.1-2.6,1.7c-0.5-0.7-1-1.5-1.4-2.2c-6.4-11.1-12.9-22.2-19.2-33.4
		c-1.1-2-2.3-2.7-4.6-2.7c-12.5,0.1-25.1,0.1-37.6,0.1c-1.1,0-2.3,0-3.5,0c0-1.1,0-2,0-3.2c1.3,0,2.5,0,3.7,0
		c12.3,0,24.7-0.1,37,0.1c2.5,0,3.9-0.7,5.1-2.9c6.2-11.1,12.7-22.1,19.1-33.1c0.4-0.7,0.9-1.4,1.4-2.3c0.9,0.5,1.7,1,2.7,1.6
		c-7.3,12.7-14.6,25.3-22,38.2C662.1,209.6,669.4,222.4,676.8,235.2z M654.4,196.9c-0.7-0.5-1.2-1-1.6-1c-0.4,0.1-0.7,0.7-1.1,1.1
		c0.4,0.4,0.8,1,1.2,1C653.3,198,653.7,197.4,654.4,196.9z"/>
	<path class="st0" d="M716.2,236.9c-1-0.7-1.8-1.2-2.7-1.8c7.3-12.7,14.6-25.4,22-38.2c-7.4-12.7-14.7-25.5-22-38.2
		c0.9-0.6,1.7-1.1,2.7-1.7c0.5,0.9,1.1,1.7,1.6,2.6c6.3,10.9,12.6,21.7,18.7,32.6c1.4,2.5,2.9,3.2,5.6,3.2
		c12.2-0.1,24.5-0.1,36.7-0.1c1.2,0,2.4,0,3.7,0c0,1.1,0,1.9,0,2.9c-0.4,0.1-0.9,0.2-1.4,0.2c-10.9,0-21.8,0-32.6,0
		c-2.6,0-5.2,0.1-7.8,0c-1.8-0.1-2.8,0.6-3.7,2.2c-6.1,10.6-12.2,21.2-18.3,31.8C718,233.9,717.1,235.3,716.2,236.9z M739,196.9
		c-0.7-0.5-1.2-1-1.6-1c-0.4,0.1-0.7,0.7-1.1,1.1c0.4,0.4,0.8,1,1.2,1C737.9,198,738.4,197.4,739,196.9z"/>
	<path class="st0" d="M954.3,786.1c-0.9-0.6-1.7-1.1-2.6-1.7c0.5-0.9,0.9-1.8,1.4-2.7c6.3-11,12.6-21.9,19-32.8
		c1.1-1.9,1.2-3.3,0.1-5.3c-6.4-10.8-12.6-21.7-18.9-32.5c-0.6-1-1.1-2-1.7-3.1c0.8-0.5,1.6-1,2.5-1.6c0.3,0.4,0.6,0.7,0.9,1.1
		c6.2,10.8,12.4,21.5,18.7,32.3c0.4,0.6,0.8,1.2,1.1,1.9c0.9,2.3,2.5,3.1,5,3c12.3-0.1,24.7-0.1,37-0.1c1.2,0,2.5,0,3.8,0
		c0,1.1,0,2,0,3.2c-1.2,0-2.3,0-3.4,0c-12.4,0-24.9,0.1-37.3-0.1c-2.7,0-4,0.9-5.3,3.1c-5.8,10.3-11.8,20.5-17.7,30.7
		C956.1,783,955.2,784.4,954.3,786.1z M975.6,744.7c-0.5,0.6-1.2,1-1.2,1.4c0,0.4,0.6,1.1,1,1.1c0.4,0,1.1-0.6,1.1-1
		C976.6,745.9,976.1,745.4,975.6,744.7z"/>
	<path class="st0" d="M912.1,706.3c1,0.6,1.7,1.1,2.7,1.7c-7.3,12.6-14.6,25.3-22,38.2c7.3,12.7,14.6,25.4,22,38.2
		c-0.9,0.6-1.6,1.1-2.6,1.7c-0.5-0.7-1-1.5-1.4-2.2c-6.4-11.1-12.9-22.2-19.2-33.4c-1.1-1.9-2.3-2.7-4.6-2.7
		c-12.5,0.1-25.1,0.1-37.6,0.1c-1.1,0-2.3,0-3.5,0c0-1.1,0-2,0-3.2c1.3,0,2.5,0,3.7,0c12.3,0,24.7-0.1,37,0.1c2.5,0,3.9-0.7,5.1-2.9
		c6.2-11.1,12.7-22.1,19.1-33.1C911.1,707.9,911.6,707.2,912.1,706.3z M892.4,746.1c-0.7-0.5-1.2-1-1.6-1c-0.4,0.1-0.7,0.7-1.1,1.1
		c0.4,0.4,0.8,1,1.2,1C891.4,747.2,891.8,746.6,892.4,746.1z"/>
	<path class="st0" d="M782.6,744.6c0,1.1,0,1.9,0,3c-0.5,0.1-0.9,0.2-1.4,0.2c-12.2,0-24.5,0.3-36.7-0.1c-4.7-0.2-7.1,1.4-9.3,5.5
		c-5.3,10-11.2,19.6-16.8,29.4c-0.7,1.2-1.3,2.3-2.1,3.6c-0.9-0.5-1.6-1-2.7-1.6c7.3-12.7,14.6-25.4,22-38.3
		c-7.4-12.8-14.7-25.5-22-38.2c1-0.6,1.7-1.1,2.7-1.7c0.5,0.9,1.1,1.7,1.6,2.6c6.2,10.8,12.5,21.5,18.6,32.3
		c1.4,2.4,2.9,3.5,5.8,3.4c12.2-0.2,24.5-0.1,36.7-0.1C780,744.6,781.1,744.6,782.6,744.6z M739,746.3c-0.6-0.5-1-1.2-1.5-1.2
		c-0.4,0-0.8,0.6-1.2,1c0.4,0.4,0.7,1.1,1.1,1.1C737.8,747.3,738.3,746.7,739,746.3z"/>
	<path class="st0" d="M654.7,746.2c7.4,12.9,14.7,25.4,22,38.2c-0.9,0.6-1.7,1.1-2.7,1.8c-0.9-1.5-1.7-2.9-2.5-4.3
		c-6-10.4-12.1-20.8-18-31.3c-1.2-2.1-2.4-2.9-4.8-2.9c-12.5,0.1-25.1,0.1-37.6,0.1c-1.1,0-2.2,0-3.4,0c0-1.1,0-1.9,0-2.8
		c0.3-0.1,0.5-0.3,0.8-0.3c5.1,0,10.2-0.1,15.2-0.1c8.1,0,16.2-0.1,24.3,0.1c2.8,0.1,4.4-0.7,5.9-3.3c6.1-10.9,12.4-21.6,18.6-32.3
		c0.5-0.9,1.1-1.8,1.6-2.7c0.9,0.5,1.6,1,2.7,1.6C669.5,720.6,662.1,733.3,654.7,746.2z M654.4,746.1c-0.7-0.5-1.2-1-1.6-1
		c-0.4,0.1-0.7,0.7-1.1,1.1c0.4,0.4,0.8,1,1.2,1C653.3,747.2,653.7,746.6,654.4,746.1z"/>
	<path class="st0" d="M544.5,744.6c0,1.1,0,1.9,0,2.9c-0.4,0.1-0.9,0.2-1.3,0.2c-8.1,0-16.2,0-24.3,0c-5.3,0-10.6,0.1-15.9,0
		c-2-0.1-3.2,0.6-4.2,2.4c-6.5,11.4-13.1,22.8-19.7,34.2c-0.3,0.5-0.6,1-1,1.7c-0.9-0.5-1.7-1-2.7-1.6c7.3-12.7,14.6-25.4,22-38.2
		c-7.3-12.7-14.7-25.4-22-38.2c0.9-0.6,1.7-1.1,2.6-1.6c0.5,0.8,1,1.5,1.5,2.3c6.4,11.1,12.9,22.2,19.2,33.4c1.1,2,2.4,2.7,4.6,2.7
		c12.4-0.1,24.9-0.1,37.3-0.1C542,744.6,543.2,744.6,544.5,744.6z M501,746.1c-0.7-0.5-1.2-1-1.6-1c-0.4,0.1-0.7,0.7-1.1,1.1
		c0.4,0.4,0.8,1,1.2,1C499.9,747.2,500.3,746.6,501,746.1z"/>
	<path class="st0" d="M369.7,747.8c0-1.2,0-2.1,0-3.2c1.4,0,2.6,0,3.8,0c12.1,0,24.3-0.1,36.4,0.1c3,0.1,4.6-1,6-3.6
		c6.1-10.9,12.4-21.6,18.6-32.3c0.5-0.8,1-1.6,1.5-2.4c0.9,0.5,1.6,0.9,2.7,1.6c-7.3,12.7-14.6,25.4-22.1,38.2
		c7.3,12.7,14.6,25.3,22,38.2c-0.9,0.6-1.7,1.1-2.6,1.8c-0.8-1.4-1.6-2.7-2.4-4c-6-10.4-12.1-20.8-18-31.3c-1.3-2.3-2.6-3.2-5.3-3.1
		c-12.4,0.2-24.9,0.1-37.3,0.1C372,747.8,370.9,747.8,369.7,747.8z M414.9,744.7c-0.5,0.6-1.2,1-1.2,1.4c0,0.4,0.6,1.1,1,1.1
		c0.4,0,1.1-0.6,1.2-1C415.9,745.9,415.4,745.4,414.9,744.7z"/>
	<path class="st0" d="M240.1,786.1c-0.9-0.6-1.6-1.1-2.5-1.7c0.5-0.9,0.9-1.8,1.4-2.7c6.3-10.9,12.5-21.8,18.8-32.6
		c1.2-2.1,1.4-3.7,0.1-5.9c-6.4-10.8-12.6-21.7-18.9-32.5c-0.5-0.9-1-1.8-1.5-2.8c0.8-0.5,1.6-1,2.5-1.6c0.3,0.3,0.6,0.7,0.9,1.1
		c6.2,10.8,12.4,21.5,18.7,32.3c0.3,0.5,0.7,1,0.9,1.6c1,2.6,2.7,3.4,5.5,3.3c12.3-0.2,24.7-0.1,37-0.1c1.1,0,2.3,0,3.5,0
		c0,1.1,0,2,0,3.2c-1.2,0-2.3,0-3.4,0c-12.4,0-24.9,0.1-37.3-0.1c-2.7,0-4,0.9-5.3,3.1c-6.1,10.8-12.4,21.6-18.6,32.3
		C241.3,784.2,240.7,785.1,240.1,786.1z M262.9,746.1c-0.7-0.5-1.2-1-1.6-1c-0.4,0.1-0.7,0.7-1.1,1.1c0.4,0.4,0.8,1,1.2,1
		C261.9,747.2,262.3,746.6,262.9,746.1z"/>
	<path class="st0" d="M131.6,747.8c0-1.1,0-1.9,0-2.8c0.3-0.1,0.5-0.3,0.8-0.3c2.6,0,5.2-0.1,7.8-0.1c10.4,0,20.7,0,31.1,0
		c5.4,0,4.1,0.7,6.7-3.8c6.2-10.6,12.2-21.2,18.4-31.8c0.5-0.9,1.1-1.8,1.6-2.7c0.9,0.5,1.6,1,2.7,1.6
		c-7.3,12.7-14.6,25.4-22.1,38.2c7.3,12.7,14.6,25.3,22,38.2c-0.9,0.6-1.7,1.1-2.6,1.8c-0.9-1.5-1.7-2.9-2.5-4.3
		c-6-10.4-12.1-20.8-18-31.3c-1.2-2-2.4-2.9-4.8-2.9c-12.5,0.1-25.1,0.1-37.6,0.1C133.9,747.8,132.8,747.8,131.6,747.8z
		 M178.3,746.3c-0.6-0.5-1.1-1.2-1.5-1.2c-0.4,0-0.8,0.6-1.2,1c0.4,0.4,0.7,1.1,1.1,1.1C177.1,747.3,177.6,746.7,178.3,746.3z"/>
	<path class="st0" d="M198,431.8c0.9,0.5,1.6,1,2.7,1.6c-7.3,12.7-14.6,25.4-22.1,38.2c7.3,12.7,14.6,25.3,22,38.2
		c-0.9,0.6-1.7,1.1-2.6,1.8c-0.8-1.4-1.6-2.7-2.4-4c-6.1-10.5-12.2-21-18.1-31.5c-1.2-2.1-2.4-2.9-4.8-2.9
		c-12.5,0.1-25.1,0.1-37.6,0.1c-1.1,0-2.2,0-3.4,0c0-1.1,0-1.9,0-2.8c0.3-0.1,0.5-0.3,0.8-0.3c5,0,9.9-0.1,14.9-0.1
		c8.2,0,16.4-0.1,24.6,0.1c2.8,0.1,4.4-0.7,5.9-3.3c6.1-10.9,12.4-21.6,18.6-32.3C196.9,433.6,197.4,432.7,198,431.8z M178.3,471.7
		c-0.6-0.5-1-1.2-1.5-1.2c-0.4,0-0.8,0.6-1.2,1c0.4,0.4,0.7,1.1,1.1,1.1C177.1,472.7,177.6,472.1,178.3,471.7z"/>
	<path class="st0" d="M240.1,511.5c-0.9-0.6-1.6-1-2.7-1.7c7.3-12.7,14.6-25.4,22-38.2c-7.3-12.7-14.6-25.4-22-38.1
		c0.9-0.6,1.7-1.1,2.6-1.7c0.6,0.9,1.1,1.8,1.6,2.7c6.4,11,12.8,22.1,19.1,33.1c1.1,1.9,2.3,2.6,4.4,2.5c12.5-0.1,25.1,0,37.6,0
		c1.1,0,2.3,0,3.6,0c0.1,1.1,0.1,1.9,0.2,3c-0.6,0.1-1.1,0.2-1.6,0.2c-13.1,0-26.1,0.1-39.2-0.1c-2.6,0-4.1,0.8-5.4,3.1
		c-5.9,10.5-12,20.9-18,31.3C241.8,508.8,241,510.1,240.1,511.5z M262.9,471.5c-0.7-0.5-1.2-1-1.6-1c-0.4,0.1-0.7,0.7-1.1,1.1
		c0.4,0.4,0.8,1,1.2,1C261.9,472.6,262.3,472,262.9,471.5z"/>
	<path class="st0" d="M914.8,1059c-1,0.6-1.7,1.1-2.7,1.7c-0.8-1.3-1.6-2.6-2.4-4c-6-10.3-12-20.6-17.8-31c-1.5-2.6-3.1-3.5-6.1-3.4
		c-12.2,0.2-24.5,0.1-36.7,0.1c-1.1,0-2.2,0-3.4,0c0-1.2,0-2,0-3.2c1.4,0,2.6,0,3.8,0c12.4,0,24.9-0.1,37.3,0.1
		c2.3,0,3.5-0.8,4.6-2.7c6.3-11.1,12.7-22.1,19.1-33.1c0.5-0.8,1-1.6,1.5-2.4c0.9,0.5,1.6,0.9,2.7,1.5c-7.3,12.7-14.6,25.4-22,38.3
		C900.1,1033.5,907.5,1046.2,914.8,1059z M891,1022.3c0.5-0.7,1.1-1.2,1-1.6c-0.1-0.4-0.8-1-1.1-1c-0.4,0-1,0.7-1,1.1
		C889.8,1021.3,890.4,1021.7,891,1022.3z"/>
	<path class="st0" d="M438.8,982.6c-7.3,12.7-14.6,25.3-22,38.2c7.3,12.6,14.6,25.4,22,38.2c-0.9,0.6-1.7,1.1-2.7,1.8
		c-3.2-5.5-6.3-10.9-9.4-16.2c-3.7-6.5-7.6-12.9-11.1-19.4c-1.2-2.2-2.6-2.8-4.9-2.7c-12.4,0.1-24.9,0.1-37.3,0.1
		c-1.1,0-2.3,0-3.6,0c0-1,0-1.9,0-3.2c1.1,0,2.2,0,3.3,0c12.5,0,25.1-0.1,37.6,0.1c2.4,0,3.7-0.8,4.8-2.9
		c6.3-11.1,12.7-22.1,19.1-33.1c0.4-0.7,0.8-1.4,1.4-2.3C436.9,981.5,437.7,982,438.8,982.6z M414.7,1022.3c0.5-0.6,1.2-1,1.2-1.4
		c0-0.4-0.6-1.1-1-1.1c-0.4,0-1.1,0.6-1.1,1C413.7,1021.1,414.2,1021.6,414.7,1022.3z"/>
	<path class="st0" d="M914.8,235.2c-1,0.6-1.7,1.1-2.5,1.6c-0.2-0.2-0.5-0.5-0.7-0.8c-6.5-11.2-12.9-22.5-19.4-33.6
		c-2.6-4.5-1.3-3.8-6.4-3.8c-12.1,0-24.3,0-36.4,0c-1.1,0-2.3,0-3.6,0c0-1,0-1.9,0-3.2c1.2,0,2.5,0,3.7,0c12.3,0,24.7-0.1,37,0.1
		c2.7,0,4-0.9,5.3-3.2c6.2-11,12.6-21.9,18.9-32.9c0.4-0.7,0.9-1.4,1.4-2.3c0.9,0.5,1.7,1,2.7,1.6c-7.3,12.7-14.6,25.3-22,38.2
		C900.1,209.6,907.4,222.3,914.8,235.2z M892.4,197c-0.6-0.5-1.1-1.2-1.5-1.2c-0.4,0-0.8,0.6-1.2,1c0.4,0.4,0.7,1.1,1.1,1.1
		C891.2,198.1,891.7,197.5,892.4,197z"/>
	<path class="st0" d="M1020.6,195.4c0.1,1.1,0.1,1.9,0.1,2.8c-0.4,0.1-0.7,0.3-1.1,0.3c-6.8,0-13.7,0-20.5,0c-6.6,0-13.3,0.1-19.9,0
		c-2,0-3.2,0.6-4.2,2.4c-6.5,11.4-13.1,22.8-19.7,34.2c-0.3,0.5-0.6,1.1-1.1,1.7c-0.9-0.5-1.7-1-2.7-1.6c7.3-12.7,14.6-25.4,22-38.2
		c-7.3-12.7-14.7-25.4-22-38.2c0.9-0.6,1.7-1,2.6-1.6c0.5,0.7,1,1.5,1.5,2.3c6.4,11.1,12.9,22.2,19.2,33.4c1.1,2,2.4,2.7,4.6,2.7
		c12.4-0.1,24.9-0.1,37.3-0.1C1018.1,195.4,1019.3,195.4,1020.6,195.4z M977.1,196.9c-0.7-0.5-1.2-1-1.6-1c-0.4,0.1-0.7,0.7-1.1,1.1
		c0.4,0.4,0.8,1,1.2,1C976,198,976.4,197.4,977.1,196.9z"/>
	<path class="st0" d="M544.6,195.4c0,1.2,0,2,0,3c-0.5,0.1-1,0.2-1.5,0.2c-13.1,0-26.1,0.1-39.2-0.1c-2.6,0-4.1,0.8-5.3,3.1
		c-5.9,10.5-12,20.9-18,31.3c-0.8,1.3-1.6,2.7-2.4,4.1c-0.9-0.6-1.7-1.1-2.7-1.7c7.3-12.7,14.6-25.4,22-38.2
		c-7.3-12.7-14.6-25.4-22-38.2c0.9-0.6,1.7-1.1,2.7-1.8c0.9,1.6,1.8,3.1,2.7,4.6c6,10.4,12.1,20.8,18,31.3c1.1,1.9,2.3,2.5,4.4,2.5
		c12.4-0.1,24.9,0,37.3,0C541.8,195.4,543.1,195.4,544.6,195.4z M501,197c-0.6-0.5-1.1-1.2-1.5-1.2c-0.4,0-0.8,0.6-1.2,1
		c0.4,0.4,0.7,1.1,1.1,1.1C499.8,198.1,500.3,197.5,501,197z"/>
	<path class="st0" d="M716.2,511.5c-1-0.7-1.7-1.2-2.6-1.8c7.3-12.7,14.6-25.4,22-38.2c-7.3-12.7-14.7-25.5-22-38.2
		c0.9-0.6,1.7-1.1,2.6-1.6c0.5,0.8,1,1.5,1.5,2.3c6.4,11.1,12.9,22.2,19.2,33.4c1.1,2,2.4,2.7,4.7,2.6c12.5-0.1,25.1-0.1,37.6-0.1
		c1.1,0,2.2,0,3.5,0c0,1.1,0,1.9,0,2.9c-0.4,0.1-0.9,0.2-1.4,0.2c-9.1,0-18.2,0-27.4,0c-4.4,0-8.7,0.1-13.1,0
		c-1.8,0-2.8,0.6-3.7,2.1c-6.5,11.3-13,22.6-19.6,33.9C717.2,509.9,716.7,510.6,716.2,511.5z M737.6,473.1c0.5-0.7,1-1.2,1-1.6
		c-0.1-0.4-0.8-1-1.1-1c-0.4,0-1,0.7-1,1.1C736.4,472,737,472.5,737.6,473.1z"/>
	<path class="st0" d="M369.7,198.6c0-1.2,0-2,0-3.2c1.3,0,2.5,0,3.7,0c12.5,0,25.1,0,37.6,0.1c2.1,0,3.3-0.7,4.4-2.6
		c6.3-11.1,12.7-22.1,19.1-33.1c0.5-0.9,1.1-1.8,1.6-2.6c0.9,0.6,1.7,1,2.7,1.6c-7.3,12.7-14.7,25.4-22,38.2
		c7.4,12.8,14.7,25.4,22,38.2c-0.9,0.6-1.7,1.1-2.6,1.8c-0.7-1.2-1.3-2.2-2-3.3c-6.3-10.9-12.6-21.7-18.8-32.6
		c-1.1-1.9-2.3-2.5-4.4-2.5c-12.5,0.1-25.1,0.1-37.6,0.1C372.2,198.6,371.1,198.6,369.7,198.6z M414.9,195.5c-0.5,0.6-1.2,1-1.2,1.4
		c0,0.4,0.6,1.1,1,1.1c0.4,0,1.1-0.6,1.2-1C415.9,196.6,415.3,196.1,414.9,195.5z"/>
	<path class="st0" d="M131.7,61.2c0-1,0-1.7,0-2.8c1.3,0,2.4,0,3.5,0c12.3,0,24.7-0.1,37,0.1c2.8,0,4.2-0.9,5.6-3.3
		c6.1-10.8,12.4-21.6,18.6-32.3c0.5-0.9,1.1-1.8,1.6-2.7c0.9,0.5,1.6,0.9,2.7,1.6c-7.3,12.6-14.6,25.2-22,38.1
		c7.3,12.6,14.6,25.4,21.9,38.1c-1,0.6-1.7,1.1-2.6,1.7c-0.6-0.9-1.2-1.9-1.7-2.8c-6.3-10.9-12.7-21.9-18.9-32.9
		c-1.1-2-2.3-2.7-4.6-2.7c-12.5,0.1-25.1,0.1-37.6,0.1C134,61.2,132.9,61.2,131.7,61.2z M178.3,60.3c-0.6-0.7-0.8-1.2-1.1-1.3
		c-0.4-0.1-0.9,0.2-1.3,0.4c0.2,0.4,0.2,1.1,0.5,1.2C176.7,60.7,177.3,60.5,178.3,60.3z"/>
	<path class="st0" d="M674.1,20.2c0.9,0.5,1.6,1,2.7,1.6c-7.3,12.6-14.6,25.2-22,38.1c7.3,12.6,14.6,25.4,21.9,38.1
		c-1,0.6-1.7,1.1-2.6,1.7c-0.6-0.9-1.2-1.9-1.7-2.8c-6.3-11-12.7-21.9-18.9-32.9c-1.1-2-2.3-2.7-4.6-2.7
		c-12.5,0.1-25.1,0.1-37.6,0.1c-1.1,0-2.3,0-3.5,0c0-1,0-1.7,0-2.8c1.3,0,2.4,0,3.5,0c12.3,0,24.7-0.1,37,0.1c2.8,0,4.2-0.9,5.6-3.3
		c6.1-10.8,12.4-21.6,18.6-32.3C673,22,673.5,21.1,674.1,20.2z M654.3,59.6c-0.9-0.3-1.4-0.6-1.9-0.6c-0.3,0-0.4,0.7-0.7,1.1
		c0.4,0.2,0.9,0.6,1.2,0.6C653.4,60.7,653.7,60.1,654.3,59.6z"/>
	<path class="st0" d="M782.6,58.5c0,1.1,0.1,1.8,0.1,2.6c-0.6,0.1-1.1,0.2-1.6,0.2c-13.1,0-26.1,0.1-39.2-0.1c-2.7,0-4,0.9-5.3,3.1
		c-6.1,10.8-12.4,21.6-18.6,32.3c-0.6,1-1.2,1.9-1.8,2.9c-0.9-0.5-1.7-1-2.7-1.6c7.3-12.7,14.7-25.4,22-38.1
		c-7.4-12.8-14.7-25.4-21.9-38c1-0.6,1.7-1.1,2.7-1.6c0.5,0.9,1.1,1.7,1.6,2.6c6.3,10.9,12.7,21.9,18.9,32.9
		c1.2,2.1,2.4,2.9,4.8,2.9c12.3-0.1,24.7-0.1,37-0.1C779.8,58.5,781.1,58.5,782.6,58.5z M738.9,59.8c-0.6-0.4-1.1-1-1.3-0.9
		c-0.5,0.1-0.8,0.7-1.2,1c0.4,0.3,0.8,0.7,1.1,0.7C737.9,60.7,738.3,60.2,738.9,59.8z"/>
	<path class="st0" d="M240.1,99.6c-0.9-0.5-1.7-1-2.7-1.6c7.3-12.7,14.7-25.4,22-38.1c-7.3-12.7-14.6-25.3-21.9-38
		c0.9-0.6,1.7-1.1,2.6-1.7c0.6,1,1.1,1.8,1.6,2.7c6.4,11,12.8,22.1,19.1,33.1c1.1,1.9,2.3,2.5,4.4,2.5c12.4-0.1,24.9,0,37.3,0
		c1.2,0,2.5,0,3.8,0c0.1,0.6,0.1,1,0.1,1.3c0,0.4,0,0.8,0.1,1.4c-1.3,0-2.4,0-3.5,0c-12.5,0-25.1,0.1-37.6-0.1
		c-2.2,0-3.5,0.6-4.7,2.6c-6.2,11-12.6,21.9-18.9,32.9C241.3,97.7,240.7,98.6,240.1,99.6z M262.8,59.8c-0.6-0.4-1.1-1-1.3-0.9
		c-0.5,0.1-0.8,0.7-1.2,1c0.4,0.3,0.8,0.7,1.1,0.7C261.8,60.7,262.2,60.2,262.8,59.8z"/>
	<path class="st0" d="M436.1,20.1c1,0.6,1.8,1.1,2.7,1.7c-7.3,12.6-14.5,25.1-21.9,38c7.3,12.6,14.6,25.3,22,38.1
		c-0.9,0.6-1.7,1-2.6,1.6c-0.3-0.3-0.6-0.7-0.8-1.1c-6.4-11.1-12.9-22.3-19.3-33.4c-0.4-0.6-0.8-1.2-1.1-1.9c-0.6-1.6-1.8-2-3.4-2
		c-7.1,0.1-14.1,0-21.1,0c-6.8,0-13.7,0-20.7,0c0-0.9,0-1.7,0-2.8c1.3,0,2.5,0,3.7,0c12.4,0,24.9-0.1,37.3,0.1
		c2.3,0,3.5-0.7,4.7-2.6c6.3-11.1,12.7-22.1,19.1-33.1C435,21.9,435.5,21.1,436.1,20.1z M416.2,59.8c-0.6-0.4-1.1-1-1.4-0.9
		c-0.4,0.1-0.8,0.7-1.2,1c0.4,0.3,0.8,0.7,1.1,0.7C415.3,60.7,415.6,60.2,416.2,59.8z"/>
	<path class="st0" d="M475.5,98c7.4-12.8,14.7-25.5,22-38.1c-7.4-12.8-14.7-25.4-21.9-38c1-0.6,1.7-1.1,2.7-1.7
		c0.5,0.9,1.1,1.7,1.6,2.6c6.3,10.9,12.6,21.7,18.8,32.6c1.3,2.3,2.6,3.2,5.3,3.1c12.2-0.2,24.5-0.1,36.7-0.1c1.2,0,2.5,0,3.9,0
		c0.1,0.9,0.2,1.7,0.3,2.6c-0.7,0.1-1.1,0.2-1.6,0.2c-13.1,0-26.1,0.1-39.2-0.1c-2.7,0-4,0.8-5.3,3.1c-6.1,10.8-12.4,21.6-18.6,32.3
		c-0.6,1-1.2,1.9-1.8,2.9C477.3,99.1,476.5,98.6,475.5,98z M500.9,59.6c-0.7-0.3-1.1-0.7-1.5-0.7c-0.4,0.1-0.7,0.6-1.1,0.9
		c0.4,0.3,0.9,0.8,1.3,0.9C499.9,60.7,500.3,60.1,500.9,59.6z"/>
	<path class="st0" d="M912.1,20.1c1,0.6,1.8,1.1,2.7,1.7c-7.2,12.6-14.5,25.1-21.9,38c7.2,12.6,14.6,25.3,22,38.1
		c-1,0.6-1.8,1.1-2.7,1.7c-3.6-6.3-7.2-12.5-10.8-18.6c-3.4-5.8-6.8-11.6-10.1-17.5c-0.9-1.7-2-2.3-3.9-2.3c-12.6,0.1-25.3,0-37.9,0
		c-1.1,0-2.3,0-3.6,0c0-0.9,0-1.7,0-2.8c1.2,0,2.3,0,3.4,0c12.4,0,24.9-0.1,37.3,0.1c2.5,0,3.9-0.7,5.1-2.9
		c6.2-11,12.6-21.9,18.9-32.9C911,21.9,911.5,21.2,912.1,20.1z M892.3,59.8c-0.6-0.4-1.1-1-1.4-0.9c-0.4,0.1-0.8,0.7-1.2,1
		c0.4,0.3,0.8,0.7,1.1,0.7C891.3,60.7,891.7,60.2,892.3,59.8z"/>
	<path class="st0" d="M954.3,99.6c-0.9-0.5-1.7-1-2.7-1.6c7.3-12.7,14.7-25.4,22-38.1c-7.4-12.8-14.7-25.4-21.9-38
		c1-0.6,1.8-1.1,2.7-1.6c0.5,0.9,1.1,1.7,1.6,2.6c6.3,10.9,12.7,21.9,18.9,32.9c1.2,2.1,2.4,2.9,4.8,2.8c12.3-0.1,24.7-0.1,37-0.1
		c1.2,0,2.5,0,3.9,0c0.1,0.9,0.2,1.7,0.3,2.6c-0.7,0.1-1.2,0.2-1.7,0.2c-13.1,0-26.1,0.1-39.2-0.1c-2.6,0-4,0.8-5.3,3.1
		c-6.1,10.8-12.4,21.6-18.6,32.4C955.5,97.6,954.9,98.6,954.3,99.6z M977,59.6c-0.7-0.3-1.1-0.7-1.5-0.7c-0.4,0.1-0.7,0.6-1,0.9
		c0.4,0.3,0.9,0.8,1.3,0.9C976,60.7,976.4,60.1,977,59.6z"/>
</g>
</svg>
